<svg xmlns="http://www.w3.org/2000/svg" xmlns:xlink="http://www.w3.org/1999/xlink" width="800" zoomAndPan="magnify" viewBox="0 0 600 225" height="300" preserveAspectRatio="xMidYMid meet" version="1.0"><defs><g/></defs><path stroke-linecap="round" transform="matrix(0.152451, -0.14703, 0.14722, 0.152254, 154.490869, 47.789869)" fill-opacity="1" fill="#ffffff" fill-rule="nonzero" stroke-linejoin="round" d="M 73.506091 -16.328962 C 73.506091 -16.328962 58.292325 -47.671526 58.292325 -47.671526 C 58.292325 -47.671526 41.654256 -39.596342 41.654256 -39.596342 C 39.410038 -41.968807 36.973955 -44.116056 34.384905 -46.051838 C 34.384905 -46.051838 40.430087 -63.535458 40.430087 -63.535458 C 40.430087 -63.535458 7.512687 -74.92683 7.512687 -74.92683 C 7.512687 -74.92683 1.467505 -57.443209 1.467505 -57.443209 C -1.768906 -57.541156 -5.013314 -57.338953 -8.253339 -56.875956 C -8.253339 -56.875956 -16.332823 -73.503918 -16.332823 -73.503918 C -16.332823 -73.503918 -47.668389 -58.301731 -47.668389 -58.301731 C -47.668389 -58.301731 -39.601725 -41.660494 -39.601725 -41.660494 C -41.963716 -39.400315 -44.127266 -36.974159 -46.053037 -34.369695 C -46.053037 -34.369695 -63.528541 -40.418722 -63.528541 -40.418722 C -63.528541 -40.418722 -74.936151 -7.5117 -74.936151 -7.5117 C -74.936151 -7.5117 -57.447389 -1.449868 -57.447389 -1.449868 C -57.536678 1.773541 -57.338662 5.017838 -56.867036 8.244139 C -56.867036 8.244139 -73.517925 16.332599 -73.517925 16.332599 C -73.517925 16.332599 -58.291339 47.661886 -58.291339 47.661886 C -58.291339 47.661886 -41.65327 39.586702 -41.65327 39.586702 C -39.409052 41.959167 -36.97253 44.132496 -34.383919 46.042198 C -34.383919 46.042198 -40.429101 63.525819 -40.429101 63.525819 C -40.429101 63.525819 -7.524521 74.930466 -7.524521 74.930466 C -7.524521 74.930466 -1.453261 57.446373 -1.453261 57.446373 C 1.769892 57.531517 5.014739 57.355394 8.254325 56.866317 C 8.254325 56.866317 16.334248 73.520358 16.334248 73.520358 C 16.334248 73.520358 47.669375 58.292092 47.669375 58.292092 C 47.669375 58.292092 39.589891 41.664131 39.589891 41.664131 C 41.977961 39.403479 44.128252 36.96452 46.041203 34.373331 C 46.041203 34.373331 63.529965 40.435162 63.529965 40.435162 C 63.529965 40.435162 74.924317 7.515336 74.924317 7.515336 C 74.924317 7.515336 57.448813 1.466308 57.448813 1.466308 C 57.524844 -1.769905 57.352906 -5.014674 56.868022 -8.253778 C 56.868022 -8.253778 73.506091 -16.328962 73.506091 -16.328962 Z M 24.006328 -10.124258 C 26.410541 -4.44159 26.617446 1.659116 25.028083 7.205367 C 24.7822 8.096789 24.483722 8.963075 24.119826 9.817502 C 21.953221 15.165501 17.988157 19.828649 12.585898 22.79604 C 12.198222 23.011756 11.784467 23.227944 11.370274 23.418053 C 10.95652 23.63424 10.542326 23.824349 10.127695 23.988378 C 4.455002 26.386741 -1.645263 26.62759 -7.202481 25.032492 C -8.080727 24.77447 -8.959849 24.464289 -9.813331 24.127557 C -15.171564 21.954935 -19.816141 18.008496 -22.789705 12.597007 C -23.018171 12.196787 -23.220558 11.796095 -23.436203 11.3826 C -23.62577 10.968633 -23.815337 10.554666 -23.992084 10.127423 C -26.396296 4.444754 -26.62928 -1.65548 -25.027097 -7.215006 C -24.767956 -8.093624 -24.469477 -8.959911 -24.131661 -9.813866 C -21.952235 -15.175141 -17.986732 -19.812209 -12.597732 -22.792404 C -12.197236 -23.021396 -11.796301 -23.224308 -11.369288 -23.427692 C -10.968354 -23.630604 -10.540902 -23.807909 -10.126709 -23.998017 C -4.454016 -26.396381 1.659507 -26.624426 7.216726 -25.029327 C 8.094971 -24.771306 8.960835 -24.473929 9.801497 -24.12392 C 15.159729 -21.951298 19.817566 -17.992056 22.80395 -12.593842 C 23.019595 -12.180347 23.234803 -11.792931 23.424369 -11.378964 C 23.627195 -10.952193 23.816762 -10.538226 24.006328 -10.124258 Z M 24.006328 -10.124258 " stroke="#393e46" stroke-width="2" stroke-opacity="1" stroke-miterlimit="4"/><path stroke-linecap="round" transform="matrix(0.14181, 0.157293, -0.157496, 0.141627, 35.246336, 146.177171)" fill-opacity="1" fill="#ffffff" fill-rule="nonzero" stroke-linejoin="round" d="M 114.683683 27.269012 C 114.683683 27.269012 114.675993 -27.278121 114.675993 -27.278121 C 114.675993 -27.278121 85.73574 -27.268848 85.73574 -27.268848 C 84.170772 -32.15027 82.223371 -36.855189 79.896301 -41.331511 C 79.896301 -41.331511 100.371734 -61.810122 100.371734 -61.810122 C 100.371734 -61.810122 61.810212 -100.375425 61.810212 -100.375425 C 61.810212 -100.375425 41.334779 -79.896813 41.334779 -79.896813 C 36.849295 -82.224204 32.161055 -84.188507 27.272824 -85.737628 C 27.272824 -85.737628 27.264851 -114.689065 27.264851 -114.689065 C 27.264851 -114.689065 -27.273185 -114.686822 -27.273185 -114.686822 C -27.273185 -114.686822 -27.265212 -85.735385 -27.265212 -85.735385 C -32.159005 -84.18923 -36.860684 -82.222071 -41.334631 -79.901048 C -41.334631 -79.901048 -61.814822 -100.375281 -61.814822 -100.375281 C -61.814822 -100.375281 -100.385276 -61.813542 -100.385276 -61.813542 C -100.385276 -61.813542 -79.89137 -41.32696 -79.89137 -41.32696 C -82.227045 -36.857407 -84.184224 -32.146266 -85.727292 -27.260674 C -85.727292 -27.260674 -114.68126 -27.263749 -114.68126 -27.263749 C -114.68126 -27.263749 -114.687285 27.271035 -114.687285 27.271035 C -114.687285 27.271035 -85.733317 27.274111 -85.733317 27.274111 C -84.182064 32.143184 -82.234663 36.848102 -79.893878 41.336773 C -79.893878 41.336773 -100.383026 61.803036 -100.383026 61.803036 C -100.383026 61.803036 -61.821504 100.368339 -61.821504 100.368339 C -61.821504 100.368339 -41.346071 79.889727 -41.346071 79.889727 C -36.846871 82.229467 -32.158632 84.19377 -27.258068 85.729193 C -27.258068 85.729193 -27.262428 114.694328 -27.262428 114.694328 C -27.262428 114.694328 27.261893 114.679736 27.261893 114.679736 C 27.261893 114.679736 27.267635 85.740648 27.267635 85.740648 C 32.147714 84.182144 36.863108 82.227334 41.349388 79.892613 C 41.349388 79.892613 61.817245 100.380544 61.817245 100.380544 C 61.817245 100.380544 100.373984 61.806456 100.373984 61.806456 C 100.373984 61.806456 79.893793 41.332223 79.893793 41.332223 C 82.241801 36.848973 84.186648 32.151528 85.729715 27.265937 C 85.729715 27.265937 114.683683 27.269012 114.683683 27.269012 Z M 40.724663 2.14542 C 40.217306 11.783122 36.358878 20.5365 30.31699 27.274278 C 29.355 28.342676 28.324435 29.349329 27.265057 30.305236 C 20.534652 36.373466 11.779737 40.221983 2.141876 40.720856 C 1.424857 40.744912 0.733887 40.767618 -0.0105615 40.766975 C -0.728962 40.764984 -1.435029 40.749295 -2.142478 40.70756 C -11.780753 40.21397 -20.538879 36.370889 -27.259263 30.319828 C -28.329039 29.356598 -29.349481 28.338579 -30.306876 27.278118 C -36.358503 20.53949 -40.205043 11.793165 -40.716333 2.155955 C -40.74131 1.439001 -40.766287 0.722048 -40.765216 0.00374658 C -40.764145 -0.714555 -40.749359 -1.420508 -40.709906 -2.153855 C -40.216265 -11.803905 -36.37017 -20.543586 -30.314567 -27.269015 C -29.352577 -28.337413 -28.335726 -29.356415 -27.264016 -30.32602 C -20.532229 -36.368203 -11.777314 -40.21672 -2.139452 -40.715593 C -1.436149 -40.751998 -0.731464 -40.762356 -0.000730332 -40.774062 C 0.71767 -40.77207 1.437452 -40.744032 2.157234 -40.715995 C 11.783176 -40.208707 20.541303 -36.365626 27.261687 -30.314565 C 28.331462 -29.351335 29.351904 -28.333316 30.309299 -27.272855 C 36.360926 -20.534228 40.2198 -11.8016 40.718756 -2.150692 C 40.743733 -1.433739 40.768711 -0.716785 40.767639 0.00151632 C 40.766568 0.719818 40.739449 1.439468 40.724663 2.14542 Z M 40.724663 2.14542 " stroke="#393e46" stroke-width="2" stroke-opacity="1" stroke-miterlimit="4"/><path stroke-linecap="round" transform="matrix(0.211931, 0, 0, 0.211658, 25.994118, 106.40091)" fill-opacity="1" fill="#ffffff" fill-rule="nonzero" stroke-linejoin="round" d="M 46.106968 10.969311 C 46.106968 10.969311 46.106968 -10.974215 46.106968 -10.974215 C 46.106968 -10.974215 34.476574 -10.974215 34.476574 -10.974215 C 33.849897 -12.930492 33.057334 -14.812948 32.13575 -16.621581 C 32.13575 -16.621581 40.356282 -24.852711 40.356282 -24.852711 C 40.356282 -24.852711 24.855234 -40.355286 24.855234 -40.355286 C 24.855234 -40.355286 16.616271 -32.124157 16.616271 -32.124157 C 14.828397 -33.065384 12.929934 -33.858969 10.957743 -34.467998 C 10.957743 -34.467998 10.957743 -46.113385 10.957743 -46.113385 C 10.957743 -46.113385 -10.957531 -46.113385 -10.957531 -46.113385 C -10.957531 -46.113385 -10.957531 -34.467998 -10.957531 -34.467998 C -12.929721 -33.858969 -14.828185 -33.065384 -16.616058 -32.124157 C -16.616058 -32.124157 -24.855022 -40.355286 -24.855022 -40.355286 C -24.855022 -40.355286 -40.35607 -24.852711 -40.35607 -24.852711 C -40.35607 -24.852711 -32.135538 -16.621581 -32.135538 -16.621581 C -33.057122 -14.812948 -33.849685 -12.930492 -34.476362 -10.974215 C -34.476362 -10.974215 -46.125187 -10.974215 -46.125187 -10.974215 C -46.125187 -10.974215 -46.125187 10.969311 -46.125187 10.969311 C -46.125187 10.969311 -34.476362 10.969311 -34.476362 10.969311 C -33.849685 12.925589 -33.075554 14.8265 -32.135538 16.616678 C -32.135538 16.616678 -40.35607 24.847807 -40.35607 24.847807 C -40.35607 24.847807 -24.855022 40.368838 -24.855022 40.368838 C -24.855022 40.368838 -16.616058 32.119253 -16.616058 32.119253 C -14.828185 33.060481 -12.929721 33.854065 -10.957531 34.48155 C -10.957531 34.48155 -10.957531 46.126937 -10.957531 46.126937 C -10.957531 46.126937 10.957743 46.126937 10.957743 46.126937 C 10.957743 46.126937 10.957743 34.48155 10.957743 34.48155 C 12.929934 33.854065 14.828397 33.060481 16.616271 32.119253 C 16.616271 32.119253 24.855234 40.368838 24.855234 40.368838 C 24.855234 40.368838 40.356282 24.847807 40.356282 24.847807 C 40.356282 24.847807 32.13575 16.616678 32.13575 16.616678 C 33.075766 14.8265 33.849897 12.925589 34.476574 10.969311 C 34.476574 10.969311 46.106968 10.969311 46.106968 10.969311 Z M 16.376659 0.874182 C 16.17391 4.749826 14.625649 8.256361 12.192666 10.969311 C 11.805601 11.393786 11.400104 11.799806 10.957743 12.187371 C 8.248286 14.62349 4.727834 16.173747 0.85718 16.376757 C 0.580704 16.376757 0.285797 16.395213 -0.00910964 16.395213 C -0.285585 16.395213 -0.580492 16.376757 -0.856967 16.376757 C -4.746053 16.173747 -8.248073 14.62349 -10.957531 12.187371 C -11.399891 11.799806 -11.805388 11.393786 -12.192454 10.969311 C -14.625436 8.256361 -16.173698 4.749826 -16.376447 0.874182 C -16.394878 0.578895 -16.394878 0.283608 -16.394878 0.00677593 C -16.394878 -0.288511 -16.394878 -0.583798 -16.376447 -0.86063 C -16.173698 -4.736274 -14.625436 -8.261264 -12.192454 -10.974215 C -11.805388 -11.39869 -11.399891 -11.80471 -10.957531 -12.192274 C -8.248073 -14.628393 -4.746053 -16.178651 -0.856967 -16.363205 C -0.580492 -16.381661 -0.285585 -16.400116 -0.00910964 -16.400116 C 0.285797 -16.400116 0.580704 -16.381661 0.85718 -16.363205 C 4.727834 -16.178651 8.248286 -14.628393 10.957743 -12.192274 C 11.400104 -11.80471 11.805601 -11.39869 12.192666 -10.974215 C 14.625649 -8.261264 16.17391 -4.736274 16.376659 -0.86063 C 16.395091 -0.583798 16.395091 -0.288511 16.395091 0.00677593 C 16.395091 0.283608 16.395091 0.578895 16.376659 0.874182 Z M 16.376659 0.874182 " stroke="#393e46" stroke-width="2" stroke-opacity="1" stroke-miterlimit="4"/><path stroke-linecap="round" transform="matrix(0.211931, 0, 0, 0.211658, 21.362502, 60.922347)" fill-opacity="1" fill="#ffffff" fill-rule="nonzero" stroke-linejoin="round" d="M 81.453296 -26.116685 C 87.462025 -3.674862 83.480781 19.099159 72.237453 37.462328 C 64.311828 51.783755 58.598005 65.569973 60.514901 77.529103 C 60.514901 77.529103 -5.949758 95.338609 -5.949758 95.338609 C -10.483953 83.545578 -23.109657 74.170211 -37.910301 65.440785 C -37.965596 65.403874 -38.020891 65.385419 -38.094618 65.348508 C -56.04708 54.921181 -70.036729 37.646883 -75.84271 16.017099 C -87.473104 -27.427022 -61.687175 -72.070747 -18.262124 -83.697679 C 25.181359 -95.32461 69.822902 -69.560807 81.453296 -26.116685 Z M 81.453296 -26.116685 " stroke="#393e46" stroke-width="2" stroke-opacity="1" stroke-miterlimit="4"/><path stroke-linecap="round" transform="matrix(0.211931, 0, 0, 0.211658, 22.758705, 67.917655)" fill="none" stroke-linejoin="round" d="M 10.391259 59.243465 C 5.672747 34.273246 -0.483436 9.561403 -8.07729 -14.670598 C -11.265972 -24.913371 -14.823287 -35.248421 -20.905743 -43.904026 C -23.117546 -47.041452 -26.730156 -50.234244 -29.937269 -48.647076 C -32.001618 -47.632026 -32.941634 -44.882165 -32.573 -42.42759 C -32.185935 -39.973016 -30.748264 -37.813729 -29.052549 -36.097372 C -24.536786 -31.48351 -18.288444 -29.434956 -12.224419 -28.807471 C -5.939215 -28.124619 0.511875 -28.825926 6.188834 -31.557332 C 11.884225 -34.270283 16.768622 -39.124065 19.127878 -45.380462 C 20.215347 -48.259511 20.731434 -51.655313 19.459648 -54.552819 C 18.187862 -57.431868 14.593683 -59.240502 12.197564 -57.542601 C 11.239116 -56.859749 10.612439 -55.733967 10.170079 -54.589729 C 8.474364 -50.215789 8.990451 -45.158996 9.690855 -40.397491 C 14.575251 -7.325331 27.477431 24.12275 32.951642 57.102633 " stroke="#393e46" stroke-width="2" stroke-opacity="1" stroke-miterlimit="4"/><path stroke-linecap="butt" transform="matrix(0.211931, 0, 0, 0.211658, 27.381561, 80.360632)" fill-opacity="1" fill="#00adb5" fill-rule="nonzero" stroke-linejoin="miter" d="M 35.984554 -3.93695 C 35.984554 -3.93695 -33.134268 14.573863 -33.134268 14.573863 C -33.134268 14.573863 -35.991179 3.92507 -35.991179 3.92507 C -35.991179 3.92507 33.127642 -14.585743 33.127642 -14.585743 C 33.127642 -14.585743 35.984554 -3.93695 35.984554 -3.93695 Z M 35.984554 -3.93695 " stroke="#393e46" stroke-width="2" stroke-opacity="1" stroke-miterlimit="10"/><path stroke-linecap="butt" transform="matrix(0.211931, 0, 0, 0.211658, 28.536587, 84.667242)" fill-opacity="1" fill="#00adb5" fill-rule="nonzero" stroke-linejoin="miter" d="M 35.990331 -3.927579 C 35.990331 -3.927579 -33.12849 14.583234 -33.12849 14.583234 C -33.12849 14.583234 -35.985402 3.934441 -35.985402 3.934441 C -35.985402 3.934441 33.13342 -14.576371 33.13342 -14.576371 C 33.13342 -14.576371 35.990331 -3.927579 35.990331 -3.927579 Z M 35.990331 -3.927579 " stroke="#393e46" stroke-width="2" stroke-opacity="1" stroke-miterlimit="10"/><path stroke-linecap="butt" transform="matrix(0.211931, 0, 0, 0.211658, 27.959499, 82.515103)" fill-opacity="1" fill="#00adb5" fill-rule="nonzero" stroke-linejoin="miter" d="M 37.994492 -4.980502 C 37.994492 -4.980502 -35.40048 14.674548 -35.40048 14.674548 C -35.40048 14.674548 -37.999348 4.985439 -37.999348 4.985439 C -37.999348 4.985439 35.395624 -14.688067 35.395624 -14.688067 C 35.395624 -14.688067 37.994492 -4.980502 37.994492 -4.980502 Z M 37.994492 -4.980502 " stroke="#393e46" stroke-width="2" stroke-opacity="1" stroke-miterlimit="10"/><path stroke-linecap="butt" transform="matrix(0.211931, 0, 0, 0.211658, 29.140802, 86.920766)" fill-opacity="1" fill="#00adb5" fill-rule="nonzero" stroke-linejoin="miter" d="M 32.070298 -2.892264 C 32.070298 -2.892264 -29.215057 13.533084 -29.215057 13.533084 C -29.215057 13.533084 -32.071968 2.884291 -32.071968 2.884291 C -32.071968 2.884291 29.231819 -13.522601 29.231819 -13.522601 C 29.231819 -13.522601 32.070298 -2.892264 32.070298 -2.892264 Z M 32.070298 -2.892264 " stroke="#393e46" stroke-width="2" stroke-opacity="1" stroke-miterlimit="10"/><path stroke-linecap="round" transform="matrix(0.211931, 0, 0, 0.211658, 103.121312, 55.106405)" fill-opacity="1" fill="#393e46" fill-rule="nonzero" stroke-linejoin="round" d="M 118.975503 37.109478 C 118.975503 37.109478 -118.977559 37.109478 -118.977559 37.109478 C -118.977559 37.109478 -118.977559 -37.118328 -118.977559 -37.118328 C -118.977559 -37.118328 118.975503 -37.118328 118.975503 -37.118328 C 118.975503 -37.118328 118.975503 37.109478 118.975503 37.109478 Z M 118.975503 37.109478 " stroke="#393e46" stroke-width="2" stroke-opacity="1" stroke-miterlimit="4"/><path stroke-linecap="round" transform="matrix(0.211931, 0, 0, 0.211658, 99.46676, 116.993405)" fill-opacity="1" fill="#ffffff" fill-rule="nonzero" stroke-linejoin="round" d="M 234.902793 297.163848 C 234.902793 297.163848 -234.902443 297.163848 -234.902443 297.163848 C -234.902443 297.163848 -234.902443 -297.156898 -234.902443 -297.156898 C -234.902443 -297.156898 234.902793 -297.156898 234.902793 -297.156898 C 234.902793 -297.156898 234.902793 297.163848 234.902793 297.163848 Z M 234.902793 297.163848 " stroke="#393e46" stroke-width="2" stroke-opacity="1" stroke-miterlimit="4"/><path stroke-linecap="round" transform="matrix(0.211931, 0, 0, 0.211658, 47.627324, 116.993405)" fill-opacity="1" fill="#eeeeee" fill-rule="nonzero" stroke-linejoin="round" d="M -9.706031 297.163848 C -9.706031 297.163848 9.702534 297.163848 9.702534 297.163848 C 9.702534 297.163848 9.702534 -297.156898 9.702534 -297.156898 C 9.702534 -297.156898 -9.706031 -297.156898 -9.706031 -297.156898 C -9.706031 -297.156898 -9.706031 297.163848 -9.706031 297.163848 Z M -9.706031 297.163848 " stroke="#393e46" stroke-width="2" stroke-opacity="1" stroke-miterlimit="4"/><path stroke-linecap="round" transform="matrix(0.211931, 0, 0, 0.211658, 100.326785, 116.063808)" fill-opacity="1" fill="#ffffff" fill-rule="nonzero" stroke-linejoin="round" d="M 213.942896 275.718191 C 213.942896 275.718191 -213.948686 275.718191 -213.948686 275.718191 C -213.948686 275.718191 -213.948686 -275.730553 -213.948686 -275.730553 C -213.948686 -275.730553 213.942896 -275.730553 213.942896 -275.730553 C 213.942896 -275.730553 213.942896 275.718191 213.942896 275.718191 Z M 213.942896 275.718191 " stroke="#393e46" stroke-width="2" stroke-opacity="1" stroke-miterlimit="4"/><path stroke-linecap="round" transform="matrix(0.211931, 0, 0, 0.211658, 107.750307, 52.333892)" fill-opacity="1" fill="#00adb5" fill-rule="nonzero" stroke-linejoin="round" d="M 118.975084 -24.019326 C 118.975084 -24.019326 118.975084 50.20848 118.975084 50.20848 C 118.975084 50.20848 -118.977978 50.20848 -118.977978 50.20848 C -118.977978 50.20848 -118.977978 -24.019326 -118.977978 -24.019326 C -118.977978 -24.019326 -68.143389 -24.019326 -68.143389 -24.019326 C -68.051231 -31.198495 -64.844117 -37.694812 -59.720109 -42.437862 C -54.522373 -47.236278 -47.334016 -50.207605 -39.38996 -50.207605 C -39.38996 -50.207605 39.387065 -50.207605 39.387065 -50.207605 C 55.146156 -50.207605 67.937746 -38.525307 68.140495 -24.019326 C 68.140495 -24.019326 118.975084 -24.019326 118.975084 -24.019326 Z M 118.975084 -24.019326 " stroke="#393e46" stroke-width="2" stroke-opacity="1" stroke-miterlimit="4"/><path stroke-linecap="round" transform="matrix(0.211931, 0, 0, 0.211658, 68.910093, 83.960308)" fill-opacity="1" fill="#ffffff" fill-rule="nonzero" stroke-linejoin="round" d="M 27.647826 27.649233 C 27.647826 27.649233 -27.647231 27.649233 -27.647231 27.649233 C -27.647231 27.649233 -27.647231 -27.643285 -27.647231 -27.643285 C -27.647231 -27.643285 27.647826 -27.643285 27.647826 -27.643285 C 27.647826 -27.643285 27.647826 27.649233 27.647826 27.649233 Z M 27.647826 27.649233 " stroke="#393e46" stroke-width="2" stroke-opacity="1" stroke-miterlimit="4"/><path stroke-linecap="round" transform="matrix(0.211931, 0, 0, 0.211658, 68.910093, 102.439782)" fill-opacity="1" fill="#ffffff" fill-rule="nonzero" stroke-linejoin="round" d="M 27.647826 27.653934 C 27.647826 27.653934 -27.647231 27.653934 -27.647231 27.653934 C -27.647231 27.653934 -27.647231 -27.657039 -27.647231 -27.657039 C -27.647231 -27.657039 27.647826 -27.657039 27.647826 -27.657039 C 27.647826 -27.657039 27.647826 27.653934 27.647826 27.653934 Z M 27.647826 27.653934 " stroke="#393e46" stroke-width="2" stroke-opacity="1" stroke-miterlimit="4"/><path stroke-linecap="round" transform="matrix(0.211931, 0, 0, 0.211658, 68.910093, 120.919032)" fill-opacity="1" fill="#ffffff" fill-rule="nonzero" stroke-linejoin="round" d="M 27.647826 27.65969 C 27.647826 27.65969 -27.647231 27.65969 -27.647231 27.65969 C -27.647231 27.65969 -27.647231 -27.651283 -27.647231 -27.651283 C -27.647231 -27.651283 27.647826 -27.651283 27.647826 -27.651283 C 27.647826 -27.651283 27.647826 27.65969 27.647826 27.65969 Z M 27.647826 27.65969 " stroke="#393e46" stroke-width="2" stroke-opacity="1" stroke-miterlimit="4"/><path stroke-linecap="round" transform="matrix(0.211931, 0, 0, 0.211658, 68.910093, 139.398506)" fill-opacity="1" fill="#ffffff" fill-rule="nonzero" stroke-linejoin="round" d="M 27.647826 27.645936 C 27.647826 27.645936 -27.647231 27.645936 -27.647231 27.645936 C -27.647231 27.645936 -27.647231 -27.646582 -27.647231 -27.646582 C -27.647231 -27.646582 27.647826 -27.646582 27.647826 -27.646582 C 27.647826 -27.646582 27.647826 27.645936 27.647826 27.645936 Z M 27.647826 27.645936 " stroke="#393e46" stroke-width="2" stroke-opacity="1" stroke-miterlimit="4"/><path stroke-linecap="round" transform="matrix(0.211931, 0, 0, 0.211658, 68.910093, 157.877977)" fill-opacity="1" fill="#ffffff" fill-rule="nonzero" stroke-linejoin="round" d="M 27.647826 27.650649 C 27.647826 27.650649 -27.647231 27.650649 -27.647231 27.650649 C -27.647231 27.650649 -27.647231 -27.660324 -27.647231 -27.660324 C -27.647231 -27.660324 27.647826 -27.660324 27.647826 -27.660324 C 27.647826 -27.660324 27.647826 27.650649 27.647826 27.650649 Z M 27.647826 27.650649 " stroke="#393e46" stroke-width="2" stroke-opacity="1" stroke-miterlimit="4"/><path stroke-linecap="round" transform="matrix(0.211931, 0, 0, 0.211658, 107.840592, 81.680954)" fill-opacity="1" fill="#eeeeee" fill-rule="nonzero" stroke-linejoin="round" d="M 131.819884 3.205265 C 131.819884 3.205265 -131.826948 3.205265 -131.826948 3.205265 C -133.135598 3.205265 -134.204635 2.134849 -134.204635 0.824512 C -134.204635 0.824512 -134.204635 -0.818022 -134.204635 -0.818022 C -134.204635 -2.128359 -133.135598 -3.198775 -131.826948 -3.198775 C -131.826948 -3.198775 131.819884 -3.198775 131.819884 -3.198775 C 133.146965 -3.198775 134.216003 -2.128359 134.216003 -0.818022 C 134.216003 -0.818022 134.216003 0.824512 134.216003 0.824512 C 134.216003 2.134849 133.146965 3.205265 131.819884 3.205265 Z M 131.819884 3.205265 " stroke="#393e46" stroke-width="2" stroke-opacity="1" stroke-miterlimit="4"/><path stroke-linecap="round" transform="matrix(0.211931, 0, 0, 0.211658, 109.834015, 85.376937)" fill-opacity="1" fill="#eeeeee" fill-rule="nonzero" stroke-linejoin="round" d="M 141.232645 3.202097 C 141.232645 3.202097 -141.232938 3.202097 -141.232938 3.202097 C -142.541588 3.202097 -143.610625 2.131681 -143.610625 0.821344 C -143.610625 0.821344 -143.610625 -0.82119 -143.610625 -0.82119 C -143.610625 -2.131527 -142.541588 -3.201943 -141.232938 -3.201943 C -141.232938 -3.201943 141.232645 -3.201943 141.232645 -3.201943 C 142.541295 -3.201943 143.610332 -2.131527 143.610332 -0.82119 C 143.610332 -0.82119 143.610332 0.821344 143.610332 0.821344 C 143.610332 2.131681 142.541295 3.202097 141.232645 3.202097 Z M 141.232645 3.202097 " stroke="#393e46" stroke-width="2" stroke-opacity="1" stroke-miterlimit="4"/><path stroke-linecap="round" transform="matrix(0.211931, 0, 0, 0.211658, 107.840592, 100.59158)" fill-opacity="1" fill="#eeeeee" fill-rule="nonzero" stroke-linejoin="round" d="M 131.819884 3.203044 C 131.819884 3.203044 -131.826948 3.203044 -131.826948 3.203044 C -133.135598 3.203044 -134.204635 2.132628 -134.204635 0.822291 C -134.204635 0.822291 -134.204635 -0.820244 -134.204635 -0.820244 C -134.204635 -2.13058 -133.135598 -3.200996 -131.826948 -3.200996 C -131.826948 -3.200996 131.819884 -3.200996 131.819884 -3.200996 C 133.146965 -3.200996 134.216003 -2.13058 134.216003 -0.820244 C 134.216003 -0.820244 134.216003 0.822291 134.216003 0.822291 C 134.216003 2.132628 133.146965 3.203044 131.819884 3.203044 Z M 131.819884 3.203044 " stroke="#393e46" stroke-width="2" stroke-opacity="1" stroke-miterlimit="4"/><path stroke-linecap="round" transform="matrix(0.211931, 0, 0, 0.211658, 106.823535, 104.28777)" fill-opacity="1" fill="#eeeeee" fill-rule="nonzero" stroke-linejoin="round" d="M 127.034405 3.1989 C 127.034405 3.1989 -127.02795 3.1989 -127.02795 3.1989 C -128.3366 3.1989 -129.405638 2.128485 -129.405638 0.818148 C -129.405638 0.818148 -129.405638 -0.824387 -129.405638 -0.824387 C -129.405638 -2.134724 -128.3366 -3.20514 -127.02795 -3.20514 C -127.02795 -3.20514 127.034405 -3.20514 127.034405 -3.20514 C 128.343055 -3.20514 129.412093 -2.134724 129.412093 -0.824387 C 129.412093 -0.824387 129.412093 0.818148 129.412093 0.818148 C 129.412093 2.128485 128.343055 3.1989 127.034405 3.1989 Z M 127.034405 3.1989 " stroke="#393e46" stroke-width="2" stroke-opacity="1" stroke-miterlimit="4"/><path stroke-linecap="round" transform="matrix(0.211931, 0, 0, 0.211658, 107.840592, 119.071044)" fill-opacity="1" fill="#eeeeee" fill-rule="nonzero" stroke-linejoin="round" d="M 131.819884 3.207791 C 131.819884 3.207791 -131.826948 3.207791 -131.826948 3.207791 C -133.135598 3.207791 -134.204635 2.137375 -134.204635 0.827038 C -134.204635 0.827038 -134.204635 -0.815497 -134.204635 -0.815497 C -134.204635 -2.125834 -133.135598 -3.196249 -131.826948 -3.196249 C -131.826948 -3.196249 131.819884 -3.196249 131.819884 -3.196249 C 133.146965 -3.196249 134.216003 -2.125834 134.216003 -0.815497 C 134.216003 -0.815497 134.216003 0.827038 134.216003 0.827038 C 134.216003 2.137375 133.146965 3.207791 131.819884 3.207791 Z M 131.819884 3.207791 " stroke="#393e46" stroke-width="2" stroke-opacity="1" stroke-miterlimit="4"/><path stroke-linecap="round" transform="matrix(0.211931, 0, 0, 0.211658, 109.834015, 122.767241)" fill-opacity="1" fill="#eeeeee" fill-rule="nonzero" stroke-linejoin="round" d="M 141.232645 3.203613 C 141.232645 3.203613 -141.232938 3.203613 -141.232938 3.203613 C -142.541588 3.203613 -143.610625 2.133197 -143.610625 0.822861 C -143.610625 0.822861 -143.610625 -0.819674 -143.610625 -0.819674 C -143.610625 -2.130011 -142.541588 -3.200427 -141.232938 -3.200427 C -141.232938 -3.200427 141.232645 -3.200427 141.232645 -3.200427 C 142.541295 -3.200427 143.610332 -2.130011 143.610332 -0.819674 C 143.610332 -0.819674 143.610332 0.822861 143.610332 0.822861 C 143.610332 2.133197 142.541295 3.203613 141.232645 3.203613 Z M 141.232645 3.203613 " stroke="#393e46" stroke-width="2" stroke-opacity="1" stroke-miterlimit="4"/><path stroke-linecap="round" transform="matrix(0.211931, 0, 0, 0.211658, 109.201827, 137.550518)" fill-opacity="1" fill="#eeeeee" fill-rule="nonzero" stroke-linejoin="round" d="M 138.243769 3.194037 C 138.243769 3.194037 -138.249948 3.194037 -138.249948 3.194037 C -139.558598 3.194037 -140.627635 2.142076 -140.627635 0.813284 C -140.627635 0.813284 -140.627635 -0.810795 -140.627635 -0.810795 C -140.627635 -2.139587 -139.558598 -3.210003 -138.249948 -3.210003 C -138.249948 -3.210003 138.243769 -3.210003 138.243769 -3.210003 C 139.57085 -3.210003 140.639888 -2.139587 140.639888 -0.810795 C 140.639888 -0.810795 140.639888 0.813284 140.639888 0.813284 C 140.639888 2.142076 139.57085 3.194037 138.243769 3.194037 Z M 138.243769 3.194037 " stroke="#393e46" stroke-width="2" stroke-opacity="1" stroke-miterlimit="4"/><path stroke-linecap="round" transform="matrix(0.211931, 0, 0, 0.211658, 107.68482, 141.246712)" fill-opacity="1" fill="#eeeeee" fill-rule="nonzero" stroke-linejoin="round" d="M 131.098793 3.208326 C 131.098793 3.208326 -131.091936 3.208326 -131.091936 3.208326 C -132.400586 3.208326 -133.469624 2.13791 -133.469624 0.809118 C -133.469624 0.809118 -133.469624 -0.814961 -133.469624 -0.814961 C -133.469624 -2.125298 -132.400586 -3.195714 -131.091936 -3.195714 C -131.091936 -3.195714 131.098793 -3.195714 131.098793 -3.195714 C 132.407442 -3.195714 133.47648 -2.125298 133.47648 -0.814961 C 133.47648 -0.814961 133.47648 0.809118 133.47648 0.809118 C 133.47648 2.13791 132.407442 3.208326 131.098793 3.208326 Z M 131.098793 3.208326 " stroke="#393e46" stroke-width="2" stroke-opacity="1" stroke-miterlimit="4"/><path stroke-linecap="round" transform="matrix(0.211931, 0, 0, 0.211658, 107.840592, 156.030003)" fill-opacity="1" fill="#eeeeee" fill-rule="nonzero" stroke-linejoin="round" d="M 131.819884 3.198681 C 131.819884 3.198681 -131.826948 3.198681 -131.826948 3.198681 C -133.135598 3.198681 -134.204635 2.128266 -134.204635 0.817929 C -134.204635 0.817929 -134.204635 -0.824606 -134.204635 -0.824606 C -134.204635 -2.134943 -133.135598 -3.205358 -131.826948 -3.205358 C -131.826948 -3.205358 131.819884 -3.205358 131.819884 -3.205358 C 133.146965 -3.205358 134.216003 -2.134943 134.216003 -0.824606 C 134.216003 -0.824606 134.216003 0.817929 134.216003 0.817929 C 134.216003 2.128266 133.146965 3.198681 131.819884 3.198681 Z M 131.819884 3.198681 " stroke="#393e46" stroke-width="2" stroke-opacity="1" stroke-miterlimit="4"/><path stroke-linecap="round" transform="matrix(0.211931, 0, 0, 0.211658, 109.834015, 159.725965)" fill-opacity="1" fill="#eeeeee" fill-rule="nonzero" stroke-linejoin="round" d="M 141.232645 3.195615 C 141.232645 3.195615 -141.232938 3.195615 -141.232938 3.195615 C -142.541588 3.195615 -143.610625 2.1252 -143.610625 0.814863 C -143.610625 0.814863 -143.610625 -0.809216 -143.610625 -0.809216 C -143.610625 -2.138009 -142.541588 -3.208424 -141.232938 -3.208424 C -141.232938 -3.208424 141.232645 -3.208424 141.232645 -3.208424 C 142.541295 -3.208424 143.610332 -2.138009 143.610332 -0.809216 C 143.610332 -0.809216 143.610332 0.814863 143.610332 0.814863 C 143.610332 2.1252 142.541295 3.195615 141.232645 3.195615 Z M 141.232645 3.195615 " stroke="#393e46" stroke-width="2" stroke-opacity="1" stroke-miterlimit="4"/><path stroke-linecap="round" transform="matrix(0.211931, 0, 0, 0.211658, 151.894666, 82.664831)" fill-opacity="1" fill="#393e46" fill-rule="nonzero" stroke-linejoin="round" d="M 13.233312 -55.240784 C -15.649139 -75.707874 -52.199172 -41.84213 -47.0383 -6.998247 C -54.558428 11.955497 -51.056407 31.979656 -42.00645 52.539024 C -17.234264 66.085322 39.959257 75.700609 54.557152 30.410943 C 51.423765 5.551457 48.216652 -18.422168 44.087954 -33.684823 C 40.751819 -48.947477 28.84495 -54.24419 13.233312 -55.240784 Z M 13.233312 -55.240784 " stroke="#393e46" stroke-width="2" stroke-opacity="1" stroke-miterlimit="4"/><path stroke-linecap="round" transform="matrix(0.211931, 0, 0, 0.211658, 151.894666, 82.664831)" fill-opacity="1" fill="#393e46" fill-rule="nonzero" stroke-linejoin="round" d="M 13.233312 -55.240784 C -15.649139 -75.707874 -52.199172 -41.84213 -47.0383 -6.998247 C -54.558428 11.955497 -51.056407 31.979656 -42.00645 52.539024 C -17.234264 66.085322 39.959257 75.700609 54.557152 30.410943 C 51.423765 5.551457 48.216652 -18.422168 44.087954 -33.684823 C 40.751819 -48.947477 28.84495 -54.24419 13.233312 -55.240784 Z M 13.233312 -55.240784 " stroke="#393e46" stroke-width="2" stroke-opacity="1" stroke-miterlimit="4"/><path stroke-linecap="butt" transform="matrix(0.211931, 0, 0, 0.211658, 166.071718, 118.259134)" fill-opacity="1" fill="#eeeeee" fill-rule="nonzero" stroke-linejoin="miter" d="M -6.863218 26.514234 C -4.485531 45.670987 16.95052 43.031858 14.572832 23.856649 C 14.572832 23.856649 7.476633 -45.683473 7.476633 -45.683473 C 7.476633 -45.683473 -16.94535 -34.241096 -16.94535 -34.241096 C -16.94535 -34.241096 -6.863218 26.514234 -6.863218 26.514234 Z M -6.863218 26.514234 " stroke="#393e46" stroke-width="2" stroke-opacity="1" stroke-miterlimit="10"/><path stroke-linecap="round" transform="matrix(0.211931, 0, 0, 0.211658, 165.634095, 105.832674)" fill-opacity="1" fill="#00adb5" fill-rule="nonzero" stroke-linejoin="round" d="M 0.381015 -33.518126 C 10.039219 -18.772224 15.882063 0.366074 18.702111 22.992452 C 18.702111 22.992452 -16.742021 33.530512 -16.742021 33.530512 C -16.742021 33.530512 -18.695779 5.939619 -18.695779 5.939619 C -18.271851 -15.837808 -14.21688 -32.336977 0.381015 -33.518126 Z M 0.381015 -33.518126 " stroke="#393e46" stroke-width="2" stroke-opacity="1" stroke-miterlimit="4"/><path stroke-linecap="round" transform="matrix(0.211931, 0, 0, 0.211658, 179.956413, 111.364364)" fill-opacity="1" fill="#eeeeee" fill-rule="nonzero" stroke-linejoin="round" d="M -19.589966 10.680589 C -17.064825 3.575242 -13.157308 -3.456283 -8.58625 -10.450897 C -7.959572 -11.392125 -7.16701 -12.241076 -6.208562 -12.83165 C -4.641869 -13.772878 -3.351651 -13.662145 -2.282613 -12.684006 C -0.734352 -11.262937 -0.49474 -8.90064 -1.490051 -7.03664 C -1.490051 -7.03664 -6.153267 1.582054 -6.153267 1.582054 C -3.204198 -0.337312 -0.568466 -2.588877 1.827653 -5.080362 C 4.905744 -8.29161 6.804208 -12.388719 7.283432 -16.448917 C 7.37559 -17.187135 7.449317 -17.888442 7.523044 -18.571294 C 7.873246 -21.487254 11.172517 -23.129789 13.623932 -21.524165 C 14.619243 -20.878225 15.503963 -20.029274 16.296526 -18.977314 C 19.061279 -15.341591 19.595798 -10.487808 18.047536 -6.187689 C 16.056914 -0.6326 12.683916 4.92249 6.970093 10.459124 C 6.970093 10.459124 -8.346638 23.138016 -8.346638 23.138016 " stroke="#393e46" stroke-width="2" stroke-opacity="1" stroke-miterlimit="4"/><path fill="#eeeeee" d="M 165.796875 122.847656 C 163.40625 124.75 166.285156 128.363281 168.679688 126.460938 C 168.679688 126.460938 178.1875 116.261719 178.1875 116.261719 C 178.1875 116.261719 175.804688 113.625 175.804688 113.625 C 175.804688 113.625 165.796875 122.847656 165.796875 122.847656 Z M 165.796875 122.847656 " fill-opacity="1" fill-rule="nonzero"/><path stroke-linecap="round" transform="matrix(0.211931, 0, 0, 0.211658, 172.316273, 116.840177)" fill="none" stroke-linejoin="round" d="M -16.458866 15.187257 C -16.458866 15.187257 16.460125 -15.190408 16.460125 -15.190408 " stroke="#393e46" stroke-width="2" stroke-opacity="1" stroke-miterlimit="4"/><path stroke-linecap="round" transform="matrix(0.211931, 0, 0, 0.211658, 171.479378, 121.949815)" fill="none" stroke-linejoin="round" d="M -31.660491 12.620707 C -29.854186 22.494371 -20.619912 26.886767 -13.210374 21.313222 C -13.210374 21.313222 31.652349 -26.873949 31.652349 -26.873949 " stroke="#393e46" stroke-width="2" stroke-opacity="1" stroke-miterlimit="4"/><path stroke-linecap="round" transform="matrix(0.211931, 0, 0, 0.211658, 147.997143, 175.747767)" fill-opacity="1" fill="#eeeeee" fill-rule="nonzero" stroke-linejoin="round" d="M -6.953698 57.757644 C -5.847797 55.561446 -3.322656 54.324931 0.0687738 42.882554 C 2.888822 33.377999 -7.783124 -16.913093 -11.819663 -43.894956 C -13.976171 -56.130917 -11.89339 -70.544621 -11.119259 -75.45377 C -1.258308 -74.973928 6.188093 -75.121572 16.067477 -75.45377 C 16.270226 -71.412027 16.989061 -59.379076 17.173378 -55.392699 C 17.283968 -52.679748 17.357695 -50.022164 17.431422 -47.383035 C 17.431422 -47.383035 17.449853 -47.383035 17.449853 -47.383035 C 17.449853 -47.383035 19.403612 -19.367667 16.067477 4.735146 C 11.146217 40.261881 15.975319 49.618792 16.159635 50.264733 C 16.159635 50.264733 14.592942 59.123347 10.85131 59.935387 C 0.584861 62.15004 -5.405437 75.456417 -11.819663 74.10917 C -18.23389 72.761922 -19.395086 70.990199 -19.395086 70.990199 C -19.395086 70.990199 -9.423544 62.648337 -6.953698 57.757644 Z M -6.953698 57.757644 " stroke="#393e46" stroke-width="2" stroke-opacity="1" stroke-miterlimit="4"/><path stroke-linecap="round" transform="matrix(0.211931, 0, 0, 0.211658, 146.598392, 190.296945)" fill-opacity="1" fill="#393e46" fill-rule="nonzero" stroke-linejoin="round" d="M -9.680108 4.096777 C -12.795063 3.764579 -4.445509 -5.426233 -5.016892 -5.020213 C -5.588274 -4.614194 -24.388593 10.796104 -25.678811 14.302639 C -26.139603 15.576065 -25.181156 17.956818 -21.421092 18.215194 C -17.642596 18.47357 -5.238072 14.597926 -1.680756 13.269134 C 1.876559 11.958797 14.188925 -4.46655 16.824656 -5.72152 C 19.460387 -6.958035 19.865884 9.854876 20.455698 10.039431 C 20.455698 10.039431 22.520047 8.562995 22.520047 8.562995 C 22.520047 8.562995 26.151089 -8.80358 22.759659 -18.474234 C 22.759659 -18.474234 19.994906 -17.957482 13.599111 -11.331976 C 6.779387 -4.26354 -5.348662 4.576619 -9.680108 4.096777 Z M -9.680108 4.096777 " stroke="#393e46" stroke-width="2" stroke-opacity="1" stroke-miterlimit="4"/><path stroke-linecap="butt" transform="matrix(0.211931, 0, 0, 0.211658, 139.576897, 117.738763)" fill-opacity="1" fill="#eeeeee" fill-rule="nonzero" stroke-linejoin="miter" d="M 2.530933 27.60707 C -3.440933 45.988694 -23.973831 39.307823 -18.001964 20.944653 C -18.001964 20.944653 2.143868 -45.993251 2.143868 -45.993251 C 2.143868 -45.993251 23.966984 -30.121567 23.966984 -30.121567 C 23.966984 -30.121567 2.530933 27.60707 2.530933 27.60707 Z M 2.530933 27.60707 " stroke="#393e46" stroke-width="2" stroke-opacity="1" stroke-miterlimit="10"/><path stroke-linecap="round" transform="matrix(0.211931, 0, 0, 0.211658, 142.354888, 106.009714)" fill-opacity="1" fill="#00adb5" fill-rule="nonzero" stroke-linejoin="round" d="M 6.877761 -34.539126 C -5.397742 -21.87869 -14.77947 -4.198372 -21.838806 17.468322 C -21.838806 17.468322 10.969595 34.53961 10.969595 34.53961 C 10.969595 34.53961 18.121089 7.834579 18.121089 7.834579 C 21.825858 -13.629105 20.978 -30.589661 6.877761 -34.539126 Z M 6.877761 -34.539126 " stroke="#393e46" stroke-width="2" stroke-opacity="1" stroke-miterlimit="4"/><path stroke-linecap="round" transform="matrix(0.211931, 0, 0, 0.211658, 157.22929, 189.620685)" fill-opacity="1" fill="#393e46" fill-rule="nonzero" stroke-linejoin="round" d="M -7.66202 -28.124171 C -7.66202 -28.124171 -11.882876 -23.159656 -11.108746 -16.718705 C -10.334615 -10.296209 -9.505189 -2.26809 -10.647954 2.880979 C -11.790718 8.030049 -10.187161 18.697297 -3.072531 23.403436 C 4.0421 28.12803 9.682196 25.027515 10.788097 18.291277 C 11.875566 11.555039 7.193918 0.481771 7.193918 0.481771 C 7.193918 0.481771 -7.66202 -28.124171 -7.66202 -28.124171 Z M -7.66202 -28.124171 " stroke="#393e46" stroke-width="2" stroke-opacity="1" stroke-miterlimit="4"/><path stroke-linecap="round" transform="matrix(0.211931, 0, 0, 0.211658, 157.285657, 173.466507)" fill-opacity="1" fill="#eeeeee" fill-rule="nonzero" stroke-linejoin="round" d="M 10.042908 -10.509006 C 6.633046 16.675867 0.255682 44.488225 5.80362 71.931474 C 6.282844 74.349137 6.854226 76.803712 6.614614 79.239831 C 6.375002 81.694405 5.103216 84.204346 2.909845 85.127118 C 0.624316 86.086801 -2.103573 85.053296 -3.81772 83.207752 C -5.531867 81.343751 -6.398156 78.833811 -7.024833 76.342325 C -10.397832 62.777572 -7.522489 48.474601 -7.559352 34.466917 C -7.614647 14.387391 -12.830814 -4.787818 -14.803005 -24.608967 C -16.756763 -44.467028 -15.392819 -64.878752 -14.471234 -84.773723 C -5.513435 -85.216654 3.683976 -86.102515 12.549617 -84.810634 C 12.549617 -84.810634 15.609277 -68.237643 15.830457 -66.392098 C 16.549293 -60.375623 16.752041 -54.248415 16.401839 -48.176573 C 15.664572 -35.479225 11.646464 -23.114076 10.042908 -10.509006 Z M 10.042908 -10.509006 " stroke="#393e46" stroke-width="2" stroke-opacity="1" stroke-miterlimit="4"/><path stroke-linecap="round" transform="matrix(0.211931, 0, 0, 0.211658, 153.38803, 146.101614)" fill-opacity="1" fill="#393e46" fill-rule="nonzero" stroke-linejoin="round" d="M -36.279746 -101.173003 C -36.279746 -101.173003 35.032445 -102.575617 35.032445 -102.575617 C 60.302286 -65.996922 49.058958 15.723796 39.732525 95.045305 C 12.545789 102.575127 -14.696243 101.947642 -42.012001 93.292038 C -53.494941 15.576152 -60.296233 -57.618149 -36.279746 -101.173003 Z M -36.279746 -101.173003 " stroke="#393e46" stroke-width="2" stroke-opacity="1" stroke-miterlimit="4"/><path stroke-linecap="round" transform="matrix(0.211931, 0, 0, 0.211658, 154.084638, 111.005696)" fill-opacity="1" fill="#00adb5" fill-rule="nonzero" stroke-linejoin="round" d="M -48.524495 -57.958557 C -38.608248 -63.993488 -28.268072 -67.961409 -17.282787 -68.644261 C -17.282787 -68.644261 -8.159103 -59.693369 -8.159103 -59.693369 C -8.159103 -59.693369 15.48875 -74.660736 15.48875 -74.660736 C 15.48875 -74.660736 54.877262 -57.958557 54.877262 -57.958557 C 41.385268 -17.282753 33.459643 23.11622 31.745496 63.238361 C 7.968622 74.662282 -15.808253 74.071708 -39.566695 64.640975 C -37.447052 41.756221 -36.654489 21.473685 -41.114957 11.452378 C -53.261438 2.667585 -54.883426 -14.089961 -45.833469 -38.930992 C -45.427972 -44.024695 -46.681326 -50.724022 -48.524495 -57.958557 Z M -48.524495 -57.958557 " stroke="#393e46" stroke-width="2" stroke-opacity="1" stroke-miterlimit="4"/><path stroke-linecap="round" transform="matrix(0.211931, 0, 0, 0.211658, 153.895818, 92.816622)" fill-opacity="1" fill="#eeeeee" fill-rule="nonzero" stroke-linejoin="round" d="M -16.391838 -10.354525 C -16.391838 -10.354525 -16.391838 17.291733 -16.391838 17.291733 C -16.391838 17.291733 -7.268154 26.242625 -7.268154 26.242625 C -7.268154 26.242625 16.379699 11.275258 16.379699 11.275258 C 16.379699 11.275258 16.158519 -26.244665 16.158519 -26.244665 C 16.158519 -26.244665 -16.391838 -10.354525 -16.391838 -10.354525 Z M -16.391838 -10.354525 " stroke="#393e46" stroke-width="2" stroke-opacity="1" stroke-miterlimit="4"/><path stroke-linecap="round" transform="matrix(0.211931, 0, 0, 0.211658, 153.895818, 92.816622)" fill-opacity="1" fill="#eeeeee" fill-rule="nonzero" stroke-linejoin="round" d="M -16.391838 -10.354525 C -16.391838 -10.354525 -16.391838 17.291733 -16.391838 17.291733 C -16.391838 17.291733 -7.268154 26.242625 -7.268154 26.242625 C -7.268154 26.242625 16.379699 11.275258 16.379699 11.275258 C 16.379699 11.275258 16.158519 -26.244665 16.158519 -26.244665 C 16.158519 -26.244665 -16.391838 -10.354525 -16.391838 -10.354525 Z M -16.391838 -10.354525 " stroke="#393e46" stroke-width="2" stroke-opacity="1" stroke-miterlimit="4"/><path stroke-linecap="round" transform="matrix(0.211931, 0, 0, 0.211658, 153.80787, 90.464881)" fill-opacity="1" fill="#393e46" fill-rule="nonzero" stroke-linejoin="round" d="M -15.976855 3.026515 C -15.976855 3.026515 -15.681948 12.180417 -15.681948 12.180417 C -2.171522 12.401882 9.8828 2.675862 15.965257 -12.605248 C 6.730982 -4.263386 -5.599815 2.546674 -15.976855 3.026515 Z M -15.976855 3.026515 " stroke="#393e46" stroke-width="2" stroke-opacity="1" stroke-miterlimit="4"/><path stroke-linecap="round" transform="matrix(0.211931, 0, 0, 0.211658, 150.244446, 97.624436)" fill-opacity="1" fill="#00adb5" fill-rule="nonzero" stroke-linejoin="round" d="M 0.837202 -9.372704 C -7.586078 -5.884624 -9.963766 -1.916703 -8.157461 2.549515 C -7.051559 5.280921 -4.692304 7.31102 -1.927551 8.086149 C 2.735666 9.359575 6.532593 7.200287 9.960886 3.527653 C 9.960886 3.527653 0.837202 -5.423238 0.837202 -5.423238 C 0.837202 -5.423238 0.837202 -9.372704 0.837202 -9.372704 Z M 0.837202 -9.372704 " stroke="#393e46" stroke-width="2" stroke-opacity="1" stroke-miterlimit="4"/><path stroke-linecap="round" transform="matrix(0.211931, 0, 0, 0.211658, 155.848762, 97.401781)" fill-opacity="1" fill="#00adb5" fill-rule="nonzero" stroke-linejoin="round" d="M -16.483146 4.579609 C -16.483146 4.579609 7.164707 -10.387758 7.164707 -10.387758 C 7.164707 -10.387758 7.164707 -13.414452 7.164707 -13.414452 C 16.472708 -5.700075 16.159369 1.663648 6.75921 8.713629 C -3.986463 13.419768 -11.230116 11.039015 -16.483146 4.579609 Z M -16.483146 4.579609 " stroke="#393e46" stroke-width="2" stroke-opacity="1" stroke-miterlimit="4"/><path stroke-linecap="round" transform="matrix(0.211931, 0, 0, 0.211658, 151.412835, 113.869224)" fill="none" stroke-linejoin="round" d="M -23.089112 -1.799802 C -16.61959 0.377941 -9.670844 -1.356871 -3.090733 -3.073228 C -1.929536 -3.386971 -0.731477 -3.682258 0.448151 -3.534614 C 2.107003 -3.313149 3.563106 -2.242733 5.019209 -1.356871 C 10.49342 1.965109 16.889215 2.85097 23.100693 3.681466 " stroke="#393e46" stroke-width="2" stroke-opacity="1" stroke-miterlimit="4"/><path stroke-linecap="round" transform="matrix(0.208037, -0.0403863, 0.0404384, 0.20777, 159.943016, 122.54323)" fill-opacity="1" fill="#eeeeee" fill-rule="nonzero" stroke-linejoin="round" d="M -172.285415 91.197229 C -172.285415 91.197229 128.867832 -147.562686 128.867832 -147.562686 C 128.867832 -147.562686 172.277412 -93.457401 172.277412 -93.457401 C 172.277412 -93.457401 -130.51623 147.559373 -130.51623 147.559373 C -130.51623 147.559373 -172.285415 91.197229 -172.285415 91.197229 Z M -172.285415 91.197229 " stroke="#393e46" stroke-width="2" stroke-opacity="1" stroke-miterlimit="4"/><path stroke-linecap="round" transform="matrix(0.208037, -0.0403863, 0.0404384, 0.20777, 130.311806, 155.594536)" fill-opacity="1" fill="#ffffff" fill-rule="nonzero" stroke-linejoin="round" d="M -36.848692 35.417533 C -36.848692 35.417533 -7.244586 -30.910553 -7.244586 -30.910553 C -7.244586 -30.910553 -5.243422 -35.409793 -5.243422 -35.409793 C -5.243422 -35.409793 4.485049 -33.199155 4.485049 -33.199155 C 4.485049 -33.199155 5.412287 -24.44572 5.412287 -24.44572 C 5.412287 -24.44572 12.08607 -22.941659 12.08607 -22.941659 C 12.08607 -22.941659 13.054837 -13.146104 13.054837 -13.146104 C 13.054837 -13.146104 20.338805 -11.786647 20.338805 -11.786647 C 20.338805 -11.786647 20.71548 -1.842971 20.71548 -1.842971 C 20.71548 -1.842971 28.711633 -0.476685 28.711633 -0.476685 C 28.711633 -0.476685 28.164834 7.745814 28.164834 7.745814 C 28.164834 7.745814 36.836745 10.465511 36.836745 10.465511 C 36.836745 10.465511 36.525763 20.952351 36.525763 20.952351 C 36.525763 20.952351 -36.848692 35.417533 -36.848692 35.417533 Z M -36.848692 35.417533 " stroke="#393e46" stroke-width="2" stroke-opacity="1" stroke-miterlimit="4"/><path stroke-linecap="round" transform="matrix(0.208037, -0.0403863, 0.0404384, 0.20777, 155.666302, 122.123947)" fill-opacity="1" fill="#eeeeee" fill-rule="nonzero" stroke-linejoin="round" d="M 118.7111 -93.974057 C 118.7111 -93.974057 117.983493 -94.867525 117.983493 -94.867525 C 117.983493 -94.867525 -118.700232 94.869944 -118.700232 94.869944 " stroke="#393e46" stroke-width="2" stroke-opacity="1" stroke-miterlimit="4"/><path stroke-linecap="round" transform="matrix(0.208037, -0.0403863, 0.0404384, 0.20777, 160.31491, 126.373102)" fill-opacity="1" fill="#eeeeee" fill-rule="nonzero" stroke-linejoin="round" d="M 118.869836 -93.732322 C 118.869836 -93.732322 118.163843 -94.640389 118.163843 -94.640389 C 118.163843 -94.640389 -118.880164 94.63223 -118.880164 94.63223 " stroke="#393e46" stroke-width="2" stroke-opacity="1" stroke-miterlimit="4"/><path stroke-linecap="round" transform="matrix(0.208037, -0.0403863, 0.0404384, 0.20777, 125.619854, 162.412928)" fill-opacity="1" fill="#393e46" fill-rule="nonzero" stroke-linejoin="round" d="M -1.81527 -8.018148 C -1.81527 -8.018148 8.953247 4.490723 8.953247 4.490723 C 8.953247 4.490723 -8.969673 8.019585 -8.969673 8.019585 C -8.969673 8.019585 -1.81527 -8.018148 -1.81527 -8.018148 Z M -1.81527 -8.018148 " stroke="#393e46" stroke-width="2" stroke-opacity="1" stroke-miterlimit="4"/><path stroke-linecap="round" transform="matrix(0.208037, -0.0403863, 0.0404384, 0.20777, 181.068434, 107.950947)" fill-opacity="1" fill="#eeeeee" fill-rule="nonzero" stroke-linejoin="round" d="M 11.581185 -0.126074 C 11.581185 -0.126074 6.444947 -10.506092 6.444947 -10.506092 C 5.535073 -12.393833 3.697718 -13.277403 1.759334 -14.124209 C -1.428927 -15.495979 -4.173362 -14.22456 -6.58593 -10.989744 C -9.027155 -7.704095 -10.210003 -3.647419 -10.199682 0.453177 C -10.199682 0.453177 -10.212433 15.491396 -10.212433 15.491396 " stroke="#393e46" stroke-width="2" stroke-opacity="1" stroke-miterlimit="4"/><path stroke-linecap="round" transform="matrix(0.200385, 0.0689092, -0.0689981, 0.200127, 152.472387, 135.653808)" fill-opacity="1" fill="#eeeeee" fill-rule="nonzero" stroke-linejoin="round" d="M -18.479192 -14.04163 C -10.830426 -14.586793 -2.695569 -13.77686 5.684441 -12.368179 C 6.823208 -12.174722 7.917496 -11.770761 8.868748 -11.102841 C 10.366232 -10.037438 10.792836 -8.798491 10.317424 -7.405105 C 9.609418 -5.385102 7.505474 -4.192203 5.375759 -4.37627 C 5.375759 -4.37627 -4.543281 -5.215983 -4.543281 -5.215983 C -1.561526 -3.236779 1.613754 -1.714588 4.902627 -0.485255 C 9.127743 1.085345 13.728519 1.199312 17.715202 -0.0172626 C 18.424319 -0.222394 19.11 -0.438974 19.778254 -0.649553 C 22.63756 -1.516978 25.512928 0.889236 25.006791 3.835191 C 24.809023 5.015863 24.378091 6.198745 23.725415 7.360385 C 21.452465 11.402675 17.140611 13.882827 12.509166 14.189317 C 6.526208 14.590311 -0.0239712 13.683663 -7.47665 10.608875 C -7.47665 10.608875 -25.50794 1.495238 -25.50794 1.495238 " stroke="#393e46" stroke-width="2" stroke-opacity="1" stroke-miterlimit="4"/><path fill="#eeeeee" d="M 139.578125 122.1875 C 137.457031 119.917969 134.023438 123.125 136.144531 125.390625 C 136.144531 125.390625 147.257812 134.195312 147.257812 134.195312 C 147.257812 134.195312 149.738281 131.570312 149.738281 131.570312 C 149.738281 131.570312 139.578125 122.1875 139.578125 122.1875 Z M 139.578125 122.1875 " fill-opacity="1" fill-rule="nonzero"/><path stroke-linecap="round" transform="matrix(0.200385, 0.0689092, -0.0689981, 0.200127, 145.130149, 127.31274)" fill="none" stroke-linejoin="round" d="M -27.119639 -11.938719 C -27.119639 -11.938719 27.107811 11.940394 27.107811 11.940394 " stroke="#393e46" stroke-width="2" stroke-opacity="1" stroke-miterlimit="4"/><path stroke-linecap="round" transform="matrix(0.200385, 0.0689092, -0.0689981, 0.200127, 141.615755, 127.377938)" fill="none" stroke-linejoin="round" d="M -34.175062 -16.276352 C -34.048653 -8.492813 -35.652125 -5.110459 -27.46638 -0.472831 C -27.46638 -0.472831 35.658038 21.787206 35.658038 21.787206 " stroke="#393e46" stroke-width="2" stroke-opacity="1" stroke-miterlimit="4"/><path fill="#393e46" d="M 156.570312 87.335938 C 156.570312 87.335938 150.3125 89 150.3125 89 C 150.3125 89 150.1875 92.210938 150.1875 92.210938 C 150.1875 92.210938 154.527344 90.75 154.527344 90.75 C 154.527344 90.75 156.777344 88.210938 156.777344 88.210938 C 156.777344 88.210938 156.570312 87.335938 156.570312 87.335938 Z M 156.570312 87.335938 " fill-opacity="1" fill-rule="nonzero"/><path stroke-linecap="round" transform="matrix(0.211931, 0, 0, 0.211658, 149.824316, 82.698266)" fill-opacity="1" fill="#eeeeee" fill-rule="nonzero" stroke-linejoin="round" d="M -26.984447 -20.77633 C -36.624219 41.049416 4.25726 54.835634 35.277787 23.590563 C 35.277787 23.590563 36.6233 -4.886191 36.6233 -4.886191 C 36.6233 -4.886191 36.6233 -23.85839 36.6233 -23.85839 C 24.16348 -54.845085 -20.054134 -47.370629 -26.984447 -20.77633 Z M -26.984447 -20.77633 " stroke="#393e46" stroke-width="2" stroke-opacity="1" stroke-miterlimit="4"/><path stroke-linecap="round" transform="matrix(0.211931, 0, 0, 0.211658, 158.84305, 83.217472)" fill-opacity="1" fill="#eeeeee" fill-rule="nonzero" stroke-linejoin="round" d="M -5.931701 -7.33923 C 1.459405 -11.916181 5.77242 -11.141052 6.564982 -4.238715 C 6.823026 -2.060973 6.601846 0.153681 6.048895 2.276057 C 3.689639 11.503781 -1.434369 11.9098 -6.816422 11.503781 C -6.816422 11.503781 -5.931701 -7.33923 -5.931701 -7.33923 Z M -5.931701 -7.33923 " stroke="#393e46" stroke-width="2" stroke-opacity="1" stroke-miterlimit="4"/><path stroke-linecap="round" transform="matrix(0.211931, 0, 0, 0.211658, 150.886736, 75.972194)" fill-opacity="1" fill="#393e46" fill-rule="nonzero" stroke-linejoin="round" d="M 8.994581 -7.841381 C 8.920854 10.078858 17.399429 21.761155 31.610259 29.235611 C 31.610259 29.235611 35.66523 -7.841381 35.66523 -7.841381 C -1.806387 -29.231244 -19.132172 -15.814134 -35.665394 -1.031321 C -35.665394 -1.031321 -31.997488 11.00163 -31.997488 11.00163 C -17.012528 9.396006 -2.986015 4.357669 8.994581 -7.841381 Z M 8.994581 -7.841381 " stroke="#393e46" stroke-width="2" stroke-opacity="1" stroke-miterlimit="4"/><path stroke-linecap="round" transform="matrix(0.211931, 0, 0, 0.211658, 149.824316, 82.698266)" fill-opacity="1" fill="#eeeeee" fill-rule="nonzero" stroke-linejoin="round" d="M -26.984447 -20.77633 C -36.624219 41.049416 4.25726 54.835634 35.277787 23.590563 C 35.277787 23.590563 36.6233 -4.886191 36.6233 -4.886191 C 36.6233 -4.886191 36.6233 -23.85839 36.6233 -23.85839 C 24.16348 -54.845085 -20.054134 -47.370629 -26.984447 -20.77633 Z M -26.984447 -20.77633 " stroke="#393e46" stroke-width="2" stroke-opacity="1" stroke-miterlimit="4"/><path stroke-linecap="round" transform="matrix(0.211931, 0, 0, 0.211658, 158.84305, 83.217472)" fill-opacity="1" fill="#eeeeee" fill-rule="nonzero" stroke-linejoin="round" d="M -5.931701 -7.33923 C 1.459405 -11.916181 5.77242 -11.141052 6.564982 -4.238715 C 6.823026 -2.060973 6.601846 0.153681 6.048895 2.276057 C 3.689639 11.503781 -1.434369 11.9098 -6.816422 11.503781 C -6.816422 11.503781 -5.931701 -7.33923 -5.931701 -7.33923 Z M -5.931701 -7.33923 " stroke="#393e46" stroke-width="2" stroke-opacity="1" stroke-miterlimit="4"/><path stroke-linecap="round" transform="matrix(0.211931, 0, 0, 0.211658, 150.886736, 75.972194)" fill-opacity="1" fill="#393e46" fill-rule="nonzero" stroke-linejoin="round" d="M 8.994581 -7.841381 C 8.920854 10.078858 17.399429 21.761155 31.610259 29.235611 C 31.610259 29.235611 35.66523 -7.841381 35.66523 -7.841381 C -1.806387 -29.231244 -19.132172 -15.814134 -35.665394 -1.031321 C -35.665394 -1.031321 -31.997488 11.00163 -31.997488 11.00163 C -17.012528 9.396006 -2.986015 4.357669 8.994581 -7.841381 Z M 8.994581 -7.841381 " stroke="#393e46" stroke-width="2" stroke-opacity="1" stroke-miterlimit="4"/><path stroke-linecap="round" transform="matrix(0.211931, 0, 0, 0.211658, 148.169979, 82.887911)" fill="none" stroke-linejoin="round" d="M 0.967392 -12.573794 C 0.28542 -1.666625 -1.391864 5.715554 -3.86171 10.366326 C -2.350311 12.341059 0.580327 12.562525 3.861167 12.37797 " stroke="#393e46" stroke-width="2" stroke-opacity="1" stroke-miterlimit="4"/><path stroke-linecap="round" transform="matrix(0.211931, 0, 0, 0.211658, 152.530892, 79.411427)" fill="none" stroke-linejoin="round" d="M -6.007041 -1.593175 C -1.030485 -2.01765 2.784874 -0.504303 6.010419 2.024093 " stroke="#393e46" stroke-width="2" stroke-opacity="1" stroke-miterlimit="4"/><path stroke-linecap="round" transform="matrix(0.211931, 0, 0, 0.211658, 146.009773, 79.124421)" fill="none" stroke-linejoin="round" d="M -4.488151 1.534537 C -1.483786 -0.772394 1.502147 -1.529067 4.48808 -0.772394 " stroke="#393e46" stroke-width="2" stroke-opacity="1" stroke-miterlimit="4"/><path stroke-linecap="round" transform="matrix(0.211931, 0, 0, 0.211658, 151.56745, 81.845704)" fill-opacity="1" fill="#393e46" fill-rule="nonzero" stroke-linejoin="round" d="M 1.9304 0.00922269 C 1.9304 2.131599 1.064111 3.866411 -0.00492723 3.866411 C -1.073965 3.866411 -1.921823 2.131599 -1.921823 0.00922269 C -1.921823 -2.131609 -1.073965 -3.866421 -0.00492723 -3.866421 C 1.064111 -3.866421 1.9304 -2.131609 1.9304 0.00922269 Z M 1.9304 0.00922269 " stroke="#393e46" stroke-width="2" stroke-opacity="1" stroke-miterlimit="4"/><path stroke-linecap="round" transform="matrix(0.211931, 0, 0, 0.211658, 152.17952, 81.223007)" fill-opacity="1" fill="#393e46" fill-rule="nonzero" stroke-linejoin="round" d="M -2.892985 -0.924431 C -0.681182 -0.832154 1.235713 -1.219719 2.894565 -2.031758 C 2.470636 -0.278491 0.903943 0.939569 -1.012953 2.02844 C -1.012953 2.02844 -2.892985 -0.924431 -2.892985 -0.924431 Z M -2.892985 -0.924431 " stroke="#393e46" stroke-width="2" stroke-opacity="1" stroke-miterlimit="4"/><path stroke-linecap="round" transform="matrix(0.211931, 0, 0, 0.211658, 146.418378, 81.650558)" fill-opacity="1" fill="#393e46" fill-rule="nonzero" stroke-linejoin="round" d="M -1.918826 0.0084379 C -1.918826 2.130814 -1.070968 3.865626 -0.00193058 3.865626 C 1.067107 3.865626 1.933396 2.130814 1.933396 0.0084379 C 1.933396 -2.132394 1.067107 -3.867206 -0.00193058 -3.867206 C -1.070968 -3.867206 -1.918826 -2.132394 -1.918826 0.0084379 Z M -1.918826 0.0084379 " stroke="#393e46" stroke-width="2" stroke-opacity="1" stroke-miterlimit="4"/><path stroke-linecap="round" transform="matrix(0.211931, 0, 0, 0.211658, 145.806527, 81.027647)" fill-opacity="1" fill="#393e46" fill-rule="nonzero" stroke-linejoin="round" d="M 2.885096 -0.924207 C 0.673294 -0.83193 -1.22517 -1.219494 -2.884021 -2.031534 C -2.460093 -0.278266 -0.893399 0.939793 1.023496 2.028664 C 1.023496 2.028664 2.885096 -0.924207 2.885096 -0.924207 Z M 2.885096 -0.924207 " stroke="#393e46" stroke-width="2" stroke-opacity="1" stroke-miterlimit="4"/><path stroke-linecap="round" transform="matrix(0.211931, 0, 0, 0.211658, 151.254646, 87.261414)" fill-opacity="1" fill="#393e46" fill-rule="nonzero" stroke-linejoin="round" d="M 9.415099 -4.206404 C 9.894322 -2.526958 6.889958 2.935854 1.692222 4.41229 C -3.505513 5.907181 -8.94286 2.825121 -9.422084 1.145676 C -9.901308 -0.552225 -5.348682 -0.570681 -0.150946 -2.047116 C 5.065221 -3.523552 8.935875 -5.904305 9.415099 -4.206404 Z M 9.415099 -4.206404 " stroke="#393e46" stroke-width="2" stroke-opacity="1" stroke-miterlimit="4"/><g fill="#00adb5" fill-opacity="0.4"><g transform="translate(215.38332, 142.748567)"><g><path d="M 23.039062 0 C 23.796875 -0.472656 24.175781 -1.042969 24.175781 -1.800781 C 24.175781 -1.894531 24.082031 -2.179688 23.984375 -2.558594 C 23.132812 -4.359375 22.847656 -8.058594 22.847656 -14.125 C 22.847656 -23.984375 23.605469 -39.628906 24.648438 -61.246094 C 32.992188 -61.910156 41.144531 -62.667969 49.394531 -63.710938 C 50.4375 -63.996094 51.101562 -64.660156 51.101562 -65.703125 L 51.101562 -65.890625 C 51.007812 -66.933594 50.246094 -67.503906 49.207031 -67.503906 L 49.015625 -67.503906 C 40.957031 -66.460938 32.992188 -65.796875 24.746094 -65.039062 L 24.839844 -65.511719 C 24.839844 -66.554688 23.984375 -67.503906 22.945312 -67.503906 C 21.902344 -67.597656 21.046875 -66.746094 21.046875 -65.703125 L 20.953125 -64.660156 C 12.988281 -63.996094 5.214844 -63.425781 -2.75 -62.953125 C -3.792969 -62.855469 -4.457031 -62.195312 -4.457031 -61.152344 L -4.457031 -60.960938 C -4.457031 -59.917969 -3.601562 -59.160156 -2.558594 -59.160156 L -2.464844 -59.160156 C 5.308594 -59.632812 13.082031 -60.203125 20.761719 -60.867188 C 19.910156 -38.585938 19.054688 -23.605469 19.054688 -14.03125 C 19.054688 -7.207031 19.433594 -3.222656 20.476562 -0.949219 C 20.953125 -0.191406 21.519531 0.191406 22.28125 0.191406 C 22.375 0.191406 22.660156 0.09375 23.039062 0 Z M 23.039062 0 "/></g></g></g><g fill="#00adb5" fill-opacity="0.4"><g transform="translate(253.968814, 142.748567)"><g><path d="M 36.976562 -19.816406 C 40.863281 -21.425781 45.035156 -23.984375 49.300781 -27.304688 C 49.773438 -27.683594 50.058594 -28.15625 50.058594 -28.726562 C 50.058594 -29.105469 49.867188 -29.484375 49.585938 -29.960938 C 49.300781 -30.433594 48.824219 -30.621094 48.164062 -30.621094 C 47.6875 -30.621094 47.214844 -30.527344 46.929688 -30.242188 C 43.894531 -27.875 41.050781 -26.070312 38.300781 -24.648438 C 39.34375 -28.726562 39.820312 -33.183594 39.820312 -37.449219 C 39.820312 -45.414062 38.207031 -53.09375 34.511719 -59.160156 C 30.621094 -65.605469 25.503906 -68.167969 20.476562 -68.167969 C 10.144531 -68.167969 0 -56.882812 0 -43.894531 C 0 -39.441406 1.234375 -34.699219 3.980469 -30.242188 C 3.316406 -26.925781 3.035156 -23.796875 3.035156 -21.046875 C 3.035156 -7.585938 9.671875 0 17.351562 0 C 24.269531 0 32.140625 -6.164062 36.976562 -19.816406 Z M 33.941406 -22.753906 C 31.570312 -21.902344 29.105469 -21.519531 26.640625 -21.519531 C 18.582031 -21.519531 11.757812 -25.789062 8.058594 -31.003906 C 8.910156 -35.078125 10.429688 -39.15625 12.324219 -42.851562 C 12.417969 -43.230469 12.515625 -43.515625 12.515625 -43.707031 C 12.515625 -44.371094 12.230469 -44.84375 11.566406 -45.316406 C 11.28125 -45.507812 10.902344 -45.601562 10.617188 -45.601562 C 9.859375 -45.601562 9.292969 -45.222656 9.007812 -44.558594 C 7.488281 -41.808594 6.445312 -38.871094 5.402344 -35.933594 C 4.359375 -38.679688 3.886719 -41.429688 3.886719 -44.179688 C 3.886719 -55.273438 12.230469 -64.28125 20.476562 -64.28125 C 26.546875 -64.28125 32.613281 -59.347656 35.171875 -46.835938 C 35.835938 -43.800781 36.121094 -40.765625 36.121094 -37.449219 C 36.121094 -32.519531 35.363281 -27.589844 33.941406 -22.753906 Z M 32.328125 -18.394531 C 27.875 -8.152344 22.375 -3.792969 17.445312 -3.792969 C 11.660156 -3.792969 6.921875 -10.050781 6.921875 -21.140625 C 6.921875 -22.660156 7.015625 -24.367188 7.207031 -26.167969 C 12.039062 -21.238281 18.867188 -17.730469 26.546875 -17.730469 C 28.535156 -17.730469 30.527344 -17.917969 32.328125 -18.394531 Z M 32.328125 -18.394531 "/></g></g></g><g fill="#00adb5" fill-opacity="0.4"><g transform="translate(299.854264, 142.748567)"><g><path d="M -2.65625 -2.464844 C 0 -0.851562 3.035156 0 6.542969 0 C 13.746094 0 21.617188 -3.507812 27.398438 -7.773438 C 39.15625 -16.402344 44.085938 -27.875 44.085938 -38.492188 C 44.085938 -52.523438 35.171875 -64.46875 20.761719 -64.46875 C 19.246094 -64.46875 17.632812 -64.28125 15.832031 -63.996094 C 16.117188 -64.660156 16.210938 -65.417969 16.210938 -66.082031 C 16.210938 -67.125 15.453125 -68.070312 14.410156 -68.070312 C 13.558594 -68.070312 12.800781 -67.597656 12.515625 -66.554688 C 12.230469 -65.324219 12.136719 -64.183594 11.851562 -62.953125 C 7.015625 -61.433594 2.75 -58.78125 0.191406 -54.515625 C 0.09375 -54.324219 0 -54.039062 0 -53.566406 C 0 -52.714844 0.285156 -52.238281 0.949219 -51.953125 C 1.234375 -51.765625 1.515625 -51.671875 1.800781 -51.671875 C 2.464844 -51.671875 3.035156 -51.953125 3.507812 -52.617188 C 5.023438 -55.273438 7.773438 -57.167969 11.09375 -58.589844 C 9.007812 -46.078125 7.964844 -33.46875 7.964844 -20.761719 C 7.964844 -17.824219 8.058594 -14.980469 8.152344 -12.039062 C 8.152344 -10.996094 9.007812 -10.144531 10.050781 -10.144531 L 10.144531 -10.144531 C 11.375 -10.238281 11.945312 -10.902344 11.945312 -12.136719 C 11.851562 -15.074219 11.757812 -18.109375 11.757812 -21.046875 C 11.757812 -34.128906 12.894531 -47.121094 15.167969 -59.917969 C 16.96875 -60.390625 18.867188 -60.582031 20.761719 -60.582031 C 32.898438 -60.582031 40.199219 -50.53125 40.199219 -38.585938 C 40.199219 -29.199219 35.742188 -18.582031 25.125 -10.808594 C 19.816406 -6.921875 12.894531 -3.792969 6.542969 -3.792969 C 3.980469 -3.792969 1.613281 -4.265625 -0.570312 -5.6875 C -0.851562 -5.878906 -1.234375 -5.972656 -1.613281 -5.972656 C -2.273438 -5.972656 -2.84375 -5.6875 -3.222656 -5.023438 C -3.414062 -4.742188 -3.507812 -4.359375 -3.507812 -4.078125 C -3.507812 -3.414062 -3.222656 -2.84375 -2.65625 -2.464844 Z M -2.65625 -2.464844 "/></g></g></g><g fill="#00adb5" fill-opacity="0.4"><g transform="translate(348.204634, 142.748567)"><g><path d="M 36.976562 -19.816406 C 40.863281 -21.425781 45.035156 -23.984375 49.300781 -27.304688 C 49.773438 -27.683594 50.058594 -28.15625 50.058594 -28.726562 C 50.058594 -29.105469 49.867188 -29.484375 49.585938 -29.960938 C 49.300781 -30.433594 48.824219 -30.621094 48.164062 -30.621094 C 47.6875 -30.621094 47.214844 -30.527344 46.929688 -30.242188 C 43.894531 -27.875 41.050781 -26.070312 38.300781 -24.648438 C 39.34375 -28.726562 39.820312 -33.183594 39.820312 -37.449219 C 39.820312 -45.414062 38.207031 -53.09375 34.511719 -59.160156 C 30.621094 -65.605469 25.503906 -68.167969 20.476562 -68.167969 C 10.144531 -68.167969 0 -56.882812 0 -43.894531 C 0 -39.441406 1.234375 -34.699219 3.980469 -30.242188 C 3.316406 -26.925781 3.035156 -23.796875 3.035156 -21.046875 C 3.035156 -7.585938 9.671875 0 17.351562 0 C 24.269531 0 32.140625 -6.164062 36.976562 -19.816406 Z M 33.941406 -22.753906 C 31.570312 -21.902344 29.105469 -21.519531 26.640625 -21.519531 C 18.582031 -21.519531 11.757812 -25.789062 8.058594 -31.003906 C 8.910156 -35.078125 10.429688 -39.15625 12.324219 -42.851562 C 12.417969 -43.230469 12.515625 -43.515625 12.515625 -43.707031 C 12.515625 -44.371094 12.230469 -44.84375 11.566406 -45.316406 C 11.28125 -45.507812 10.902344 -45.601562 10.617188 -45.601562 C 9.859375 -45.601562 9.292969 -45.222656 9.007812 -44.558594 C 7.488281 -41.808594 6.445312 -38.871094 5.402344 -35.933594 C 4.359375 -38.679688 3.886719 -41.429688 3.886719 -44.179688 C 3.886719 -55.273438 12.230469 -64.28125 20.476562 -64.28125 C 26.546875 -64.28125 32.613281 -59.347656 35.171875 -46.835938 C 35.835938 -43.800781 36.121094 -40.765625 36.121094 -37.449219 C 36.121094 -32.519531 35.363281 -27.589844 33.941406 -22.753906 Z M 32.328125 -18.394531 C 27.875 -8.152344 22.375 -3.792969 17.445312 -3.792969 C 11.660156 -3.792969 6.921875 -10.050781 6.921875 -21.140625 C 6.921875 -22.660156 7.015625 -24.367188 7.207031 -26.167969 C 12.039062 -21.238281 18.867188 -17.730469 26.546875 -17.730469 C 28.535156 -17.730469 30.527344 -17.917969 32.328125 -18.394531 Z M 32.328125 -18.394531 "/></g></g></g><g fill="#00adb5" fill-opacity="0.4"><g transform="translate(394.090085, 142.748567)"><g/></g></g><g fill="#00adb5" fill-opacity="0.4"><g transform="translate(413.051021, 142.748567)"><g><path d="M 57.167969 -4.078125 C 58.210938 -4.265625 58.6875 -4.835938 58.6875 -5.878906 L 58.6875 -6.257812 C 58.496094 -7.300781 57.925781 -7.773438 56.882812 -7.773438 L 56.503906 -7.773438 C 52.617188 -7.015625 48.636719 -6.824219 44.75 -6.824219 C 34.511719 -6.824219 24.367188 -8.53125 12.609375 -9.195312 C 22.847656 -25.503906 18.394531 -48.824219 25.882812 -65.417969 C 25.976562 -65.796875 26.070312 -66.082031 26.070312 -66.175781 C 26.070312 -66.933594 25.691406 -67.503906 24.933594 -67.976562 C 24.554688 -68.070312 24.269531 -68.167969 24.175781 -68.167969 C 23.324219 -68.167969 22.753906 -67.789062 22.46875 -67.027344 C 14.125 -49.207031 19.53125 -24.175781 8.152344 -9.386719 C 3.980469 -9.386719 1.042969 -9.007812 -0.472656 -7.964844 C -1.894531 -6.921875 -2.65625 -5.59375 -2.65625 -3.980469 C -2.65625 -1.800781 -1.234375 0 1.328125 0 C 3.507812 0 6.445312 -1.421875 9.953125 -5.5 C 21.710938 -5.121094 32.992188 -3.035156 44.464844 -3.035156 C 48.730469 -3.035156 52.902344 -3.316406 57.167969 -4.078125 Z M 1.707031 -4.835938 C 1.992188 -4.929688 2.558594 -5.308594 4.550781 -5.402344 C 2.371094 -3.414062 1.042969 -3.414062 1.042969 -4.078125 C 1.042969 -4.359375 1.234375 -4.550781 1.707031 -4.835938 Z M 1.707031 -4.835938 "/></g></g></g><g fill="#00adb5" fill-opacity="0.4"><g transform="translate(459.315683, 142.748567)"><g><path d="M 14.03125 -2.464844 C 17.917969 -2.558594 21.519531 -2.558594 23.417969 -2.65625 C 24.648438 -2.75 25.21875 -3.414062 25.21875 -4.644531 C 25.125 -5.6875 24.460938 -6.445312 23.417969 -6.445312 L 23.226562 -6.445312 C 21.425781 -6.351562 17.824219 -6.351562 14.03125 -6.257812 C 14.410156 -29.863281 13.746094 -20.761719 17.160156 -62.761719 C 21.238281 -62.855469 24.933594 -62.953125 27.304688 -63.238281 C 28.347656 -63.332031 29.011719 -63.996094 29.011719 -65.039062 L 29.011719 -65.226562 C 29.011719 -66.269531 28.0625 -67.027344 27.019531 -67.027344 C 24.839844 -66.746094 21.140625 -66.839844 17.445312 -66.554688 C 17.160156 -67.597656 16.589844 -68.070312 15.546875 -68.070312 C 14.503906 -68.070312 13.9375 -67.40625 13.652344 -66.367188 C 9.859375 -66.269531 6.164062 -66.082031 3.886719 -65.984375 C 2.84375 -65.890625 2.085938 -65.132812 2.085938 -64.089844 L 2.085938 -63.898438 C 2.179688 -62.855469 2.9375 -62.195312 3.980469 -62.195312 L 4.078125 -62.195312 C 6.257812 -62.289062 9.671875 -62.476562 13.367188 -62.574219 C 9.953125 -21.046875 10.617188 -29.863281 10.238281 -6.257812 C 6.445312 -6.164062 3.035156 -6.164062 1.234375 -6.066406 C 0.191406 -5.972656 -0.570312 -5.308594 -0.570312 -4.265625 L -0.570312 -4.078125 C -0.472656 -2.84375 0.191406 -2.273438 1.328125 -2.273438 L 1.421875 -2.273438 C 3.222656 -2.371094 6.542969 -2.371094 10.238281 -2.464844 L 10.238281 -1.894531 C 10.144531 -0.472656 11.09375 0 12.136719 0 C 12.988281 0 14.03125 -0.570312 14.03125 -1.800781 Z M 14.03125 -2.464844 "/></g></g></g><g fill="#00adb5" fill-opacity="0.4"><g transform="translate(486.903817, 142.748567)"><g><path d="M 12.800781 0.09375 C 20.003906 0.09375 23.984375 -5.5 23.984375 -12.800781 C 23.984375 -16.117188 23.132812 -19.910156 21.332031 -23.605469 C 24.460938 -24.648438 28.441406 -25.21875 32.992188 -25.21875 C 34.128906 -25.21875 35.457031 -25.125 36.691406 -25.027344 C 37.828125 -24.933594 38.679688 -25.789062 38.679688 -26.925781 C 38.679688 -27.96875 38.019531 -28.726562 36.976562 -28.820312 C 35.554688 -28.917969 34.226562 -29.011719 32.804688 -29.011719 C 27.496094 -29.011719 23.132812 -28.15625 19.433594 -27.019531 C 16.496094 -31.664062 12.703125 -35.648438 9.386719 -39.722656 C 6.257812 -43.800781 3.792969 -48.636719 3.792969 -53.28125 C 3.792969 -56.222656 4.644531 -58.96875 6.921875 -61.246094 C 8.910156 -63.238281 11.09375 -64.183594 13.558594 -64.183594 C 18.582031 -64.183594 23.132812 -60.109375 24.460938 -54.230469 C 24.746094 -53.1875 25.410156 -52.714844 26.355469 -52.714844 L 26.734375 -52.714844 C 27.777344 -52.996094 28.253906 -53.660156 28.253906 -54.609375 L 28.253906 -54.988281 C 26.734375 -62.953125 20.195312 -67.976562 13.558594 -67.976562 C 10.238281 -67.976562 6.921875 -66.839844 4.171875 -63.898438 C 1.234375 -60.867188 0 -57.167969 0 -53.375 C 0 -47.972656 2.558594 -42.1875 6.351562 -37.355469 C 9.480469 -33.277344 13.082031 -29.769531 15.832031 -25.691406 C 10.523438 -23.417969 4.550781 -19.339844 2.085938 -14.125 C 1.328125 -12.515625 0.949219 -10.996094 0.949219 -9.671875 C 0.949219 -3.980469 6.445312 0.09375 12.800781 0.09375 Z M 16.496094 -4.742188 C 15.453125 -4.078125 14.125 -3.792969 12.515625 -3.792969 C 8.722656 -3.792969 4.835938 -5.972656 4.835938 -9.671875 C 4.835938 -10.617188 5.023438 -11.566406 5.5 -12.417969 C 7.773438 -16.96875 13.082031 -20.476562 17.730469 -22.375 C 19.152344 -19.433594 20.195312 -15.832031 20.195312 -12.515625 C 20.195312 -9.195312 19.152344 -6.257812 16.496094 -4.742188 Z M 16.496094 -4.742188 "/></g></g></g><g fill="#00adb5" fill-opacity="0.4"><g transform="translate(523.119193, 142.748567)"><g><path d="M 23.039062 0 C 23.796875 -0.472656 24.175781 -1.042969 24.175781 -1.800781 C 24.175781 -1.894531 24.082031 -2.179688 23.984375 -2.558594 C 23.132812 -4.359375 22.847656 -8.058594 22.847656 -14.125 C 22.847656 -23.984375 23.605469 -39.628906 24.648438 -61.246094 C 32.992188 -61.910156 41.144531 -62.667969 49.394531 -63.710938 C 50.4375 -63.996094 51.101562 -64.660156 51.101562 -65.703125 L 51.101562 -65.890625 C 51.007812 -66.933594 50.246094 -67.503906 49.207031 -67.503906 L 49.015625 -67.503906 C 40.957031 -66.460938 32.992188 -65.796875 24.746094 -65.039062 L 24.839844 -65.511719 C 24.839844 -66.554688 23.984375 -67.503906 22.945312 -67.503906 C 21.902344 -67.597656 21.046875 -66.746094 21.046875 -65.703125 L 20.953125 -64.660156 C 12.988281 -63.996094 5.214844 -63.425781 -2.75 -62.953125 C -3.792969 -62.855469 -4.457031 -62.195312 -4.457031 -61.152344 L -4.457031 -60.960938 C -4.457031 -59.917969 -3.601562 -59.160156 -2.558594 -59.160156 L -2.464844 -59.160156 C 5.308594 -59.632812 13.082031 -60.203125 20.761719 -60.867188 C 19.910156 -38.585938 19.054688 -23.605469 19.054688 -14.03125 C 19.054688 -7.207031 19.433594 -3.222656 20.476562 -0.949219 C 20.953125 -0.191406 21.519531 0.191406 22.28125 0.191406 C 22.375 0.191406 22.660156 0.09375 23.039062 0 Z M 23.039062 0 "/></g></g></g><g fill="#eeeeee" fill-opacity="1"><g transform="translate(220.915392, 140.625004)"><g><path d="M 23.039062 0 C 23.796875 -0.472656 24.175781 -1.042969 24.175781 -1.800781 C 24.175781 -1.894531 24.082031 -2.179688 23.984375 -2.558594 C 23.132812 -4.359375 22.847656 -8.058594 22.847656 -14.125 C 22.847656 -23.984375 23.605469 -39.628906 24.648438 -61.246094 C 32.992188 -61.910156 41.144531 -62.667969 49.394531 -63.710938 C 50.4375 -63.996094 51.101562 -64.660156 51.101562 -65.703125 L 51.101562 -65.890625 C 51.007812 -66.933594 50.246094 -67.503906 49.207031 -67.503906 L 49.015625 -67.503906 C 40.957031 -66.460938 32.992188 -65.796875 24.746094 -65.039062 L 24.839844 -65.511719 C 24.839844 -66.554688 23.984375 -67.503906 22.945312 -67.503906 C 21.902344 -67.597656 21.046875 -66.746094 21.046875 -65.703125 L 20.953125 -64.660156 C 12.988281 -63.996094 5.214844 -63.425781 -2.75 -62.953125 C -3.792969 -62.855469 -4.457031 -62.195312 -4.457031 -61.152344 L -4.457031 -60.960938 C -4.457031 -59.917969 -3.601562 -59.160156 -2.558594 -59.160156 L -2.464844 -59.160156 C 5.308594 -59.632812 13.082031 -60.203125 20.761719 -60.867188 C 19.910156 -38.585938 19.054688 -23.605469 19.054688 -14.03125 C 19.054688 -7.207031 19.433594 -3.222656 20.476562 -0.949219 C 20.953125 -0.191406 21.519531 0.191406 22.28125 0.191406 C 22.375 0.191406 22.660156 0.09375 23.039062 0 Z M 23.039062 0 "/></g></g></g><g fill="#eeeeee" fill-opacity="1"><g transform="translate(259.500885, 140.625004)"><g><path d="M 36.976562 -19.816406 C 40.863281 -21.425781 45.035156 -23.984375 49.300781 -27.304688 C 49.773438 -27.683594 50.058594 -28.15625 50.058594 -28.726562 C 50.058594 -29.105469 49.867188 -29.484375 49.585938 -29.960938 C 49.300781 -30.433594 48.824219 -30.621094 48.164062 -30.621094 C 47.6875 -30.621094 47.214844 -30.527344 46.929688 -30.242188 C 43.894531 -27.875 41.050781 -26.070312 38.300781 -24.648438 C 39.34375 -28.726562 39.820312 -33.183594 39.820312 -37.449219 C 39.820312 -45.414062 38.207031 -53.09375 34.511719 -59.160156 C 30.621094 -65.605469 25.503906 -68.167969 20.476562 -68.167969 C 10.144531 -68.167969 0 -56.882812 0 -43.894531 C 0 -39.441406 1.234375 -34.699219 3.980469 -30.242188 C 3.316406 -26.925781 3.035156 -23.796875 3.035156 -21.046875 C 3.035156 -7.585938 9.671875 0 17.351562 0 C 24.269531 0 32.140625 -6.164062 36.976562 -19.816406 Z M 33.941406 -22.753906 C 31.570312 -21.902344 29.105469 -21.519531 26.640625 -21.519531 C 18.582031 -21.519531 11.757812 -25.789062 8.058594 -31.003906 C 8.910156 -35.078125 10.429688 -39.15625 12.324219 -42.851562 C 12.417969 -43.230469 12.515625 -43.515625 12.515625 -43.707031 C 12.515625 -44.371094 12.230469 -44.84375 11.566406 -45.316406 C 11.28125 -45.507812 10.902344 -45.601562 10.617188 -45.601562 C 9.859375 -45.601562 9.292969 -45.222656 9.007812 -44.558594 C 7.488281 -41.808594 6.445312 -38.871094 5.402344 -35.933594 C 4.359375 -38.679688 3.886719 -41.429688 3.886719 -44.179688 C 3.886719 -55.273438 12.230469 -64.28125 20.476562 -64.28125 C 26.546875 -64.28125 32.613281 -59.347656 35.171875 -46.835938 C 35.835938 -43.800781 36.121094 -40.765625 36.121094 -37.449219 C 36.121094 -32.519531 35.363281 -27.589844 33.941406 -22.753906 Z M 32.328125 -18.394531 C 27.875 -8.152344 22.375 -3.792969 17.445312 -3.792969 C 11.660156 -3.792969 6.921875 -10.050781 6.921875 -21.140625 C 6.921875 -22.660156 7.015625 -24.367188 7.207031 -26.167969 C 12.039062 -21.238281 18.867188 -17.730469 26.546875 -17.730469 C 28.535156 -17.730469 30.527344 -17.917969 32.328125 -18.394531 Z M 32.328125 -18.394531 "/></g></g></g><g fill="#eeeeee" fill-opacity="1"><g transform="translate(305.386336, 140.625004)"><g><path d="M -2.65625 -2.464844 C 0 -0.851562 3.035156 0 6.542969 0 C 13.746094 0 21.617188 -3.507812 27.398438 -7.773438 C 39.15625 -16.402344 44.085938 -27.875 44.085938 -38.492188 C 44.085938 -52.523438 35.171875 -64.46875 20.761719 -64.46875 C 19.246094 -64.46875 17.632812 -64.28125 15.832031 -63.996094 C 16.117188 -64.660156 16.210938 -65.417969 16.210938 -66.082031 C 16.210938 -67.125 15.453125 -68.070312 14.410156 -68.070312 C 13.558594 -68.070312 12.800781 -67.597656 12.515625 -66.554688 C 12.230469 -65.324219 12.136719 -64.183594 11.851562 -62.953125 C 7.015625 -61.433594 2.75 -58.78125 0.191406 -54.515625 C 0.09375 -54.324219 0 -54.039062 0 -53.566406 C 0 -52.714844 0.285156 -52.238281 0.949219 -51.953125 C 1.234375 -51.765625 1.515625 -51.671875 1.800781 -51.671875 C 2.464844 -51.671875 3.035156 -51.953125 3.507812 -52.617188 C 5.023438 -55.273438 7.773438 -57.167969 11.09375 -58.589844 C 9.007812 -46.078125 7.964844 -33.46875 7.964844 -20.761719 C 7.964844 -17.824219 8.058594 -14.980469 8.152344 -12.039062 C 8.152344 -10.996094 9.007812 -10.144531 10.050781 -10.144531 L 10.144531 -10.144531 C 11.375 -10.238281 11.945312 -10.902344 11.945312 -12.136719 C 11.851562 -15.074219 11.757812 -18.109375 11.757812 -21.046875 C 11.757812 -34.128906 12.894531 -47.121094 15.167969 -59.917969 C 16.96875 -60.390625 18.867188 -60.582031 20.761719 -60.582031 C 32.898438 -60.582031 40.199219 -50.53125 40.199219 -38.585938 C 40.199219 -29.199219 35.742188 -18.582031 25.125 -10.808594 C 19.816406 -6.921875 12.894531 -3.792969 6.542969 -3.792969 C 3.980469 -3.792969 1.613281 -4.265625 -0.570312 -5.6875 C -0.851562 -5.878906 -1.234375 -5.972656 -1.613281 -5.972656 C -2.273438 -5.972656 -2.84375 -5.6875 -3.222656 -5.023438 C -3.414062 -4.742188 -3.507812 -4.359375 -3.507812 -4.078125 C -3.507812 -3.414062 -3.222656 -2.84375 -2.65625 -2.464844 Z M -2.65625 -2.464844 "/></g></g></g><g fill="#eeeeee" fill-opacity="1"><g transform="translate(353.736706, 140.625004)"><g><path d="M 36.976562 -19.816406 C 40.863281 -21.425781 45.035156 -23.984375 49.300781 -27.304688 C 49.773438 -27.683594 50.058594 -28.15625 50.058594 -28.726562 C 50.058594 -29.105469 49.867188 -29.484375 49.585938 -29.960938 C 49.300781 -30.433594 48.824219 -30.621094 48.164062 -30.621094 C 47.6875 -30.621094 47.214844 -30.527344 46.929688 -30.242188 C 43.894531 -27.875 41.050781 -26.070312 38.300781 -24.648438 C 39.34375 -28.726562 39.820312 -33.183594 39.820312 -37.449219 C 39.820312 -45.414062 38.207031 -53.09375 34.511719 -59.160156 C 30.621094 -65.605469 25.503906 -68.167969 20.476562 -68.167969 C 10.144531 -68.167969 0 -56.882812 0 -43.894531 C 0 -39.441406 1.234375 -34.699219 3.980469 -30.242188 C 3.316406 -26.925781 3.035156 -23.796875 3.035156 -21.046875 C 3.035156 -7.585938 9.671875 0 17.351562 0 C 24.269531 0 32.140625 -6.164062 36.976562 -19.816406 Z M 33.941406 -22.753906 C 31.570312 -21.902344 29.105469 -21.519531 26.640625 -21.519531 C 18.582031 -21.519531 11.757812 -25.789062 8.058594 -31.003906 C 8.910156 -35.078125 10.429688 -39.15625 12.324219 -42.851562 C 12.417969 -43.230469 12.515625 -43.515625 12.515625 -43.707031 C 12.515625 -44.371094 12.230469 -44.84375 11.566406 -45.316406 C 11.28125 -45.507812 10.902344 -45.601562 10.617188 -45.601562 C 9.859375 -45.601562 9.292969 -45.222656 9.007812 -44.558594 C 7.488281 -41.808594 6.445312 -38.871094 5.402344 -35.933594 C 4.359375 -38.679688 3.886719 -41.429688 3.886719 -44.179688 C 3.886719 -55.273438 12.230469 -64.28125 20.476562 -64.28125 C 26.546875 -64.28125 32.613281 -59.347656 35.171875 -46.835938 C 35.835938 -43.800781 36.121094 -40.765625 36.121094 -37.449219 C 36.121094 -32.519531 35.363281 -27.589844 33.941406 -22.753906 Z M 32.328125 -18.394531 C 27.875 -8.152344 22.375 -3.792969 17.445312 -3.792969 C 11.660156 -3.792969 6.921875 -10.050781 6.921875 -21.140625 C 6.921875 -22.660156 7.015625 -24.367188 7.207031 -26.167969 C 12.039062 -21.238281 18.867188 -17.730469 26.546875 -17.730469 C 28.535156 -17.730469 30.527344 -17.917969 32.328125 -18.394531 Z M 32.328125 -18.394531 "/></g></g></g><g fill="#eeeeee" fill-opacity="1"><g transform="translate(399.622156, 140.625004)"><g/></g></g><g fill="#eeeeee" fill-opacity="1"><g transform="translate(418.583093, 140.625004)"><g><path d="M 57.167969 -4.078125 C 58.210938 -4.265625 58.6875 -4.835938 58.6875 -5.878906 L 58.6875 -6.257812 C 58.496094 -7.300781 57.925781 -7.773438 56.882812 -7.773438 L 56.503906 -7.773438 C 52.617188 -7.015625 48.636719 -6.824219 44.75 -6.824219 C 34.511719 -6.824219 24.367188 -8.53125 12.609375 -9.195312 C 22.847656 -25.503906 18.394531 -48.824219 25.882812 -65.417969 C 25.976562 -65.796875 26.070312 -66.082031 26.070312 -66.175781 C 26.070312 -66.933594 25.691406 -67.503906 24.933594 -67.976562 C 24.554688 -68.070312 24.269531 -68.167969 24.175781 -68.167969 C 23.324219 -68.167969 22.753906 -67.789062 22.46875 -67.027344 C 14.125 -49.207031 19.53125 -24.175781 8.152344 -9.386719 C 3.980469 -9.386719 1.042969 -9.007812 -0.472656 -7.964844 C -1.894531 -6.921875 -2.65625 -5.59375 -2.65625 -3.980469 C -2.65625 -1.800781 -1.234375 0 1.328125 0 C 3.507812 0 6.445312 -1.421875 9.953125 -5.5 C 21.710938 -5.121094 32.992188 -3.035156 44.464844 -3.035156 C 48.730469 -3.035156 52.902344 -3.316406 57.167969 -4.078125 Z M 1.707031 -4.835938 C 1.992188 -4.929688 2.558594 -5.308594 4.550781 -5.402344 C 2.371094 -3.414062 1.042969 -3.414062 1.042969 -4.078125 C 1.042969 -4.359375 1.234375 -4.550781 1.707031 -4.835938 Z M 1.707031 -4.835938 "/></g></g></g><g fill="#eeeeee" fill-opacity="1"><g transform="translate(464.847755, 140.625004)"><g><path d="M 14.03125 -2.464844 C 17.917969 -2.558594 21.519531 -2.558594 23.417969 -2.65625 C 24.648438 -2.75 25.21875 -3.414062 25.21875 -4.644531 C 25.125 -5.6875 24.460938 -6.445312 23.417969 -6.445312 L 23.226562 -6.445312 C 21.425781 -6.351562 17.824219 -6.351562 14.03125 -6.257812 C 14.410156 -29.863281 13.746094 -20.761719 17.160156 -62.761719 C 21.238281 -62.855469 24.933594 -62.953125 27.304688 -63.238281 C 28.347656 -63.332031 29.011719 -63.996094 29.011719 -65.039062 L 29.011719 -65.226562 C 29.011719 -66.269531 28.0625 -67.027344 27.019531 -67.027344 C 24.839844 -66.746094 21.140625 -66.839844 17.445312 -66.554688 C 17.160156 -67.597656 16.589844 -68.070312 15.546875 -68.070312 C 14.503906 -68.070312 13.9375 -67.40625 13.652344 -66.367188 C 9.859375 -66.269531 6.164062 -66.082031 3.886719 -65.984375 C 2.84375 -65.890625 2.085938 -65.132812 2.085938 -64.089844 L 2.085938 -63.898438 C 2.179688 -62.855469 2.9375 -62.195312 3.980469 -62.195312 L 4.078125 -62.195312 C 6.257812 -62.289062 9.671875 -62.476562 13.367188 -62.574219 C 9.953125 -21.046875 10.617188 -29.863281 10.238281 -6.257812 C 6.445312 -6.164062 3.035156 -6.164062 1.234375 -6.066406 C 0.191406 -5.972656 -0.570312 -5.308594 -0.570312 -4.265625 L -0.570312 -4.078125 C -0.472656 -2.84375 0.191406 -2.273438 1.328125 -2.273438 L 1.421875 -2.273438 C 3.222656 -2.371094 6.542969 -2.371094 10.238281 -2.464844 L 10.238281 -1.894531 C 10.144531 -0.472656 11.09375 0 12.136719 0 C 12.988281 0 14.03125 -0.570312 14.03125 -1.800781 Z M 14.03125 -2.464844 "/></g></g></g><g fill="#eeeeee" fill-opacity="1"><g transform="translate(492.435888, 140.625004)"><g><path d="M 12.800781 0.09375 C 20.003906 0.09375 23.984375 -5.5 23.984375 -12.800781 C 23.984375 -16.117188 23.132812 -19.910156 21.332031 -23.605469 C 24.460938 -24.648438 28.441406 -25.21875 32.992188 -25.21875 C 34.128906 -25.21875 35.457031 -25.125 36.691406 -25.027344 C 37.828125 -24.933594 38.679688 -25.789062 38.679688 -26.925781 C 38.679688 -27.96875 38.019531 -28.726562 36.976562 -28.820312 C 35.554688 -28.917969 34.226562 -29.011719 32.804688 -29.011719 C 27.496094 -29.011719 23.132812 -28.15625 19.433594 -27.019531 C 16.496094 -31.664062 12.703125 -35.648438 9.386719 -39.722656 C 6.257812 -43.800781 3.792969 -48.636719 3.792969 -53.28125 C 3.792969 -56.222656 4.644531 -58.96875 6.921875 -61.246094 C 8.910156 -63.238281 11.09375 -64.183594 13.558594 -64.183594 C 18.582031 -64.183594 23.132812 -60.109375 24.460938 -54.230469 C 24.746094 -53.1875 25.410156 -52.714844 26.355469 -52.714844 L 26.734375 -52.714844 C 27.777344 -52.996094 28.253906 -53.660156 28.253906 -54.609375 L 28.253906 -54.988281 C 26.734375 -62.953125 20.195312 -67.976562 13.558594 -67.976562 C 10.238281 -67.976562 6.921875 -66.839844 4.171875 -63.898438 C 1.234375 -60.867188 0 -57.167969 0 -53.375 C 0 -47.972656 2.558594 -42.1875 6.351562 -37.355469 C 9.480469 -33.277344 13.082031 -29.769531 15.832031 -25.691406 C 10.523438 -23.417969 4.550781 -19.339844 2.085938 -14.125 C 1.328125 -12.515625 0.949219 -10.996094 0.949219 -9.671875 C 0.949219 -3.980469 6.445312 0.09375 12.800781 0.09375 Z M 16.496094 -4.742188 C 15.453125 -4.078125 14.125 -3.792969 12.515625 -3.792969 C 8.722656 -3.792969 4.835938 -5.972656 4.835938 -9.671875 C 4.835938 -10.617188 5.023438 -11.566406 5.5 -12.417969 C 7.773438 -16.96875 13.082031 -20.476562 17.730469 -22.375 C 19.152344 -19.433594 20.195312 -15.832031 20.195312 -12.515625 C 20.195312 -9.195312 19.152344 -6.257812 16.496094 -4.742188 Z M 16.496094 -4.742188 "/></g></g></g><g fill="#eeeeee" fill-opacity="1"><g transform="translate(528.651264, 140.625004)"><g><path d="M 23.039062 0 C 23.796875 -0.472656 24.175781 -1.042969 24.175781 -1.800781 C 24.175781 -1.894531 24.082031 -2.179688 23.984375 -2.558594 C 23.132812 -4.359375 22.847656 -8.058594 22.847656 -14.125 C 22.847656 -23.984375 23.605469 -39.628906 24.648438 -61.246094 C 32.992188 -61.910156 41.144531 -62.667969 49.394531 -63.710938 C 50.4375 -63.996094 51.101562 -64.660156 51.101562 -65.703125 L 51.101562 -65.890625 C 51.007812 -66.933594 50.246094 -67.503906 49.207031 -67.503906 L 49.015625 -67.503906 C 40.957031 -66.460938 32.992188 -65.796875 24.746094 -65.039062 L 24.839844 -65.511719 C 24.839844 -66.554688 23.984375 -67.503906 22.945312 -67.503906 C 21.902344 -67.597656 21.046875 -66.746094 21.046875 -65.703125 L 20.953125 -64.660156 C 12.988281 -63.996094 5.214844 -63.425781 -2.75 -62.953125 C -3.792969 -62.855469 -4.457031 -62.195312 -4.457031 -61.152344 L -4.457031 -60.960938 C -4.457031 -59.917969 -3.601562 -59.160156 -2.558594 -59.160156 L -2.464844 -59.160156 C 5.308594 -59.632812 13.082031 -60.203125 20.761719 -60.867188 C 19.910156 -38.585938 19.054688 -23.605469 19.054688 -14.03125 C 19.054688 -7.207031 19.433594 -3.222656 20.476562 -0.949219 C 20.953125 -0.191406 21.519531 0.191406 22.28125 0.191406 C 22.375 0.191406 22.660156 0.09375 23.039062 0 Z M 23.039062 0 "/></g></g></g></svg>